<svg xmlns="http://www.w3.org/2000/svg" xmlns:xlink="http://www.w3.org/1999/xlink" width="1080" zoomAndPan="magnify" viewBox="0 0 810 809.999993" height="1080" preserveAspectRatio="xMidYMid meet" version="1.0"><defs><filter x="0%" y="0%" width="100%" height="100%" id="db3f4f61ed"><feColorMatrix values="0 0 0 0 1 0 0 0 0 1 0 0 0 0 1 0 0 0 1 0" color-interpolation-filters="sRGB"/></filter><mask id="9c79c82522"><g filter="url(#db3f4f61ed)"><rect x="-81" width="972" fill="#000000" y="-80.999999" height="971.999992" fill-opacity="0.42"/></g></mask><clipPath id="c42ed21e3c"><path d="M 0 0.160156 L 84.71875 0.160156 L 84.71875 39.28125 L 0 39.28125 Z M 0 0.160156 " clip-rule="nonzero"/></clipPath><clipPath id="71d66b4813"><rect x="0" width="85" y="0" height="40"/></clipPath><mask id="91435abcad"><g filter="url(#db3f4f61ed)"><rect x="-81" width="972" fill="#000000" y="-80.999999" height="971.999992" fill-opacity="0.35"/></g></mask><clipPath id="965edd6a90"><path d="M 0.160156 0.640625 L 600.160156 0.640625 L 600.160156 207.519531 L 0.160156 207.519531 Z M 0.160156 0.640625 " clip-rule="nonzero"/></clipPath><clipPath id="1eeb074045"><rect x="0" width="601" y="0" height="208"/></clipPath><clipPath id="40225cea64"><path d="M 66 472 L 762 472 L 762 704.554688 L 66 704.554688 Z M 66 472 " clip-rule="nonzero"/></clipPath><clipPath id="022eca7fc8"><path d="M 61 467 L 767 467 L 767 704.554688 L 61 704.554688 Z M 61 467 " clip-rule="nonzero"/></clipPath><mask id="245d7c17f7"><g filter="url(#db3f4f61ed)"><rect x="-81" width="972" fill="#000000" y="-80.999999" height="971.999992" fill-opacity="0.19"/></g></mask><clipPath id="9ce1519415"><path d="M 0.160156 0.71875 L 481.839844 0.71875 L 481.839844 186.238281 L 0.160156 186.238281 Z M 0.160156 0.71875 " clip-rule="nonzero"/></clipPath><clipPath id="aca6dfc887"><rect x="0" width="482" y="0" height="187"/></clipPath><mask id="54e22ec74d"><g filter="url(#db3f4f61ed)"><rect x="-81" width="972" fill="#000000" y="-80.999999" height="971.999992" fill-opacity="0.62"/></g></mask><clipPath id="f6c4afde9f"><path d="M 0.238281 0.160156 L 613.679688 0.160156 L 613.679688 205.359375 L 0.238281 205.359375 Z M 0.238281 0.160156 " clip-rule="nonzero"/></clipPath><clipPath id="4f62f10da5"><rect x="0" width="614" y="0" height="206"/></clipPath><mask id="1a0af276ca"><g filter="url(#db3f4f61ed)"><rect x="-81" width="972" fill="#000000" y="-80.999999" height="971.999992" fill-opacity="0.35"/></g></mask><clipPath id="cf35de63ad"><path d="M 0.761719 0.441406 L 600.761719 0.441406 L 600.761719 207.320312 L 0.761719 207.320312 Z M 0.761719 0.441406 " clip-rule="nonzero"/></clipPath><clipPath id="a1e361f5d1"><rect x="0" width="601" y="0" height="208"/></clipPath><clipPath id="8a931a894c"><path d="M 76 250 L 780.722656 250 L 780.722656 493 L 76 493 Z M 76 250 " clip-rule="nonzero"/></clipPath><mask id="f12bec1f9b"><g filter="url(#db3f4f61ed)"><rect x="-81" width="972" fill="#000000" y="-80.999999" height="971.999992" fill-opacity="0.19"/></g></mask><clipPath id="4733f8be40"><path d="M 0.761719 0.761719 L 482.441406 0.761719 L 482.441406 186.039062 L 0.761719 186.039062 Z M 0.761719 0.761719 " clip-rule="nonzero"/></clipPath><clipPath id="79901037e4"><rect x="0" width="483" y="0" height="187"/></clipPath><clipPath id="c19edf1262"><path d="M 761 336 L 780.722656 336 L 780.722656 355 L 761 355 Z M 761 336 " clip-rule="nonzero"/></clipPath><clipPath id="c84b6cc983"><path d="M 80 26.554688 L 758 26.554688 L 758 260 L 80 260 Z M 80 26.554688 " clip-rule="nonzero"/></clipPath><clipPath id="90ad8e0508"><path d="M 74 26.554688 L 764 26.554688 L 764 266 L 74 266 Z M 74 26.554688 " clip-rule="nonzero"/></clipPath><mask id="4ae8f93b94"><g filter="url(#db3f4f61ed)"><rect x="-81" width="972" fill="#000000" y="-80.999999" height="971.999992" fill-opacity="0.52"/></g></mask><clipPath id="29bd622629"><path d="M 0.199219 0.878906 L 600.199219 0.878906 L 600.199219 209.199219 L 0.199219 209.199219 Z M 0.199219 0.878906 " clip-rule="nonzero"/></clipPath><clipPath id="9456632c9c"><rect x="0" width="601" y="0" height="210"/></clipPath><mask id="228629d832"><g filter="url(#db3f4f61ed)"><rect x="-81" width="972" fill="#000000" y="-80.999999" height="971.999992" fill-opacity="0.19"/></g></mask><clipPath id="aed2084db5"><path d="M 0.800781 0.0390625 L 481.519531 0.0390625 L 481.519531 188.921875 L 0.800781 188.921875 Z M 0.800781 0.0390625 " clip-rule="nonzero"/></clipPath><clipPath id="75982bd985"><rect x="0" width="482" y="0" height="189"/></clipPath><mask id="af1c016fe4"><g filter="url(#db3f4f61ed)"><rect x="-81" width="972" fill="#000000" y="-80.999999" height="971.999992" fill-opacity="0.16"/></g></mask><clipPath id="b455f2ce6d"><path d="M 0.839844 0.160156 L 66.121094 0.160156 L 66.121094 34 L 0.839844 34 Z M 0.839844 0.160156 " clip-rule="nonzero"/></clipPath><clipPath id="75a53067a1"><rect x="0" width="67" y="0" height="34"/></clipPath></defs><g mask="url(#9c79c82522)"><g transform="matrix(1, 0, 0, 1, 54, 350)"><g clip-path="url(#71d66b4813)"><path fill="#010101" d="M 32.140625 2.566406 L 2.046875 18.402344 L 82.507812 37.042969 Z M 32.140625 2.566406 " fill-opacity="1" fill-rule="nonzero"/><g clip-path="url(#c42ed21e3c)"><path stroke-linecap="butt" transform="matrix(0.389158, 0, 0, 0.389074, -31.865, -375.579316)" fill="none" stroke-linejoin="miter" d="M 164.47205 971.912699 L 87.141648 1012.614333 L 293.89809 1060.524594 Z M 164.47205 971.912699 " stroke="#000000" stroke-width="1" stroke-opacity="1" stroke-miterlimit="10"/></g></g></g></g><path stroke-linecap="butt" transform="matrix(0.389158, 0, 0, 0.389074, 22.135002, -25.579304)" fill-opacity="1" fill="#ffffff" fill-rule="nonzero" stroke-linejoin="miter" d="M 1874.925391 1522.067439 L 1871.362009 1353.678735 L 660.043086 1632.044178 L 197.80723 1359.782977 C 197.80723 1359.782977 187.739422 1351.279206 179.12708 1355.295155 C 170.524775 1359.321143 169.802061 1366.881165 169.802061 1366.881165 L 163.438163 1505.069939 C 163.438163 1505.069939 162.584958 1513.915065 168.999046 1517.991252 C 175.433208 1522.057399 648.891207 1818.494608 648.891207 1818.494608 Z M 1874.925391 1522.067439 " stroke="#000000" stroke-width="1" stroke-opacity="1" stroke-miterlimit="10"/><path stroke-linecap="butt" transform="matrix(0.389158, 0, 0, 0.389074, 22.135002, -25.579304)" fill-opacity="1" fill="#f26822" fill-rule="nonzero" stroke-linejoin="miter" d="M 1293.752886 998.026372 L 1888.596731 1299.684313 L 665.001708 1591.784298 L 148.371582 1281.431829 Z M 1293.752886 998.026372 " stroke="#000000" stroke-width="1" stroke-opacity="1" stroke-miterlimit="10"/><g mask="url(#91435abcad)"><g transform="matrix(1, 0, 0, 1, 116, 374)"><g clip-path="url(#1eeb074045)"><path fill="#f9a11b" d="M 167.523438 205.273438 C 167.101562 205.273438 166.675781 205.160156 166.304688 204.9375 L 3.5 107.15625 C 2.675781 106.664062 2.234375 105.726562 2.378906 104.78125 C 2.523438 103.835938 3.21875 103.066406 4.148438 102.835938 L 407.132812 3.148438 C 407.683594 3.011719 408.265625 3.078125 408.773438 3.332031 L 596.722656 98.625 C 597.605469 99.074219 598.121094 100.027344 598.003906 101.011719 C 597.886719 101.996094 597.167969 102.804688 596.203125 103.035156 L 168.074219 205.207031 C 167.894531 205.25 167.707031 205.273438 167.523438 205.273438 Z M 10.847656 106.050781 L 167.917969 200.382812 L 588.839844 99.925781 L 407.421875 7.945312 Z M 10.847656 106.050781 " fill-opacity="1" fill-rule="nonzero"/><g clip-path="url(#965edd6a90)"><path stroke-linecap="butt" transform="matrix(0.389158, 0, 0, 0.389074, -93.864999, -399.579316)" fill="none" stroke-linejoin="miter" d="M 671.676777 1554.596649 C 670.592706 1554.596649 669.498597 1554.305493 668.545016 1553.73322 L 250.193963 1302.415188 C 248.076009 1301.150165 246.94175 1298.740596 247.313145 1296.310947 C 247.684539 1293.881298 249.471249 1291.903444 251.86022 1291.311092 L 1287.38899 1035.093603 C 1288.804305 1034.742207 1290.299922 1034.912885 1291.604822 1035.565477 L 1774.568518 1280.488112 C 1776.837037 1281.642697 1778.162013 1284.092425 1777.860882 1286.622472 C 1777.559751 1289.15252 1775.712816 1291.230773 1773.233505 1291.823125 L 673.092092 1554.425971 C 672.630358 1554.53641 672.148549 1554.596649 671.676777 1554.596649 Z M 269.074867 1299.573905 L 672.690584 1542.026732 L 1754.31245 1283.831388 L 1288.13178 1047.422564 Z M 269.074867 1299.573905 " stroke="#000000" stroke-width="1" stroke-opacity="1" stroke-miterlimit="10"/></g></g></g></g><g clip-path="url(#40225cea64)"><path fill="#cd5928" d="M 761.128906 564.359375 L 761.128906 583.253906 L 276.828125 704.367188 L 71.296875 572.265625 C 71.296875 572.265625 56.429688 520.171875 79.875 472.992188 L 280.925781 593.742188 L 757.097656 480.097656 L 757.097656 499.566406 L 278.996094 609.40625 L 96.867188 502.152344 C 93.117188 499.929688 88.347656 502.507812 88.152344 506.859375 L 85.714844 560.472656 C 85.628906 562.398438 86.582031 564.222656 88.214844 565.246094 L 274.65625 681.949219 Z M 761.128906 564.359375 " fill-opacity="1" fill-rule="nonzero"/></g><g clip-path="url(#022eca7fc8)"><path stroke-linecap="butt" transform="matrix(0.389158, 0, 0, 0.389074, 22.135002, -25.579304)" fill="none" stroke-linejoin="miter" d="M 1898.955633 1516.264394 L 1898.955633 1564.827247 L 654.472166 1876.113424 L 126.328804 1536.585092 C 126.328804 1536.585092 88.125337 1402.693382 148.371582 1281.431829 L 665.001708 1591.784298 L 1888.596731 1299.694353 L 1888.596731 1349.733066 L 660.043086 1632.044178 L 192.035556 1356.379461 C 182.399368 1350.666774 170.143343 1357.293089 169.641458 1368.477504 L 163.377936 1506.274723 C 163.157107 1511.224379 165.606305 1515.912999 169.802061 1518.543445 L 648.891207 1818.494608 Z M 1898.955633 1516.264394 " stroke="#000000" stroke-width="1" stroke-opacity="1" stroke-miterlimit="10"/></g><g mask="url(#245d7c17f7)"><g transform="matrix(1, 0, 0, 1, 272, 498)"><g clip-path="url(#aca6dfc887)"><path fill="#f9a11b" d="M 2.65625 183.953125 L 6.996094 111.40625 L 478.390625 3.105469 L 479.777344 68.617188 Z M 2.65625 183.953125 " fill-opacity="1" fill-rule="nonzero"/><g clip-path="url(#9ce1519415)"><path stroke-linecap="butt" transform="matrix(0.389158, 0, 0, 0.389074, -249.865006, -523.579323)" fill="none" stroke-linejoin="miter" d="M 648.891228 1818.504697 L 660.043107 1632.044227 L 1871.36203 1353.688824 L 1874.925412 1522.067488 Z M 648.891228 1818.504697 " stroke="#000000" stroke-width="1" stroke-opacity="1" stroke-miterlimit="10"/></g></g></g></g><path stroke-linecap="butt" transform="matrix(0.389158, 0, 0, 0.389074, 22.135002, -25.579304)" fill-opacity="1" fill="#e98d24" fill-rule="nonzero" stroke-linejoin="miter" d="M 1898.955633 1516.264394 L 1874.533921 1503.041885 L 1874.925391 1522.067439 Z M 1898.955633 1516.264394 " stroke="#000000" stroke-width="1" stroke-opacity="1" stroke-miterlimit="10"/><path stroke-linecap="butt" transform="matrix(0.389158, 0, 0, 0.389074, 22.135002, -25.579304)" fill-opacity="1" fill="#e98d24" fill-rule="nonzero" stroke-linejoin="miter" d="M 1888.596731 1349.723027 L 1871.442311 1357.17261 L 1871.362009 1353.688775 Z M 1888.596731 1349.723027 " stroke="#000000" stroke-width="1" stroke-opacity="1" stroke-miterlimit="10"/><path stroke-linecap="butt" transform="matrix(0.389158, 0, 0, 0.389074, 22.135002, -25.579304)" fill-opacity="1" fill="#fce586" fill-rule="nonzero" stroke-linejoin="miter" d="M 1251.795321 1086.849104 L 1572.459527 1263.099026 L 1450.089986 1306.12991 L 1146.63039 1115.412535 Z M 1251.795321 1086.849104 " stroke="#000000" stroke-width="1" stroke-opacity="1" stroke-miterlimit="10"/><path stroke-linecap="butt" transform="matrix(0.389158, 0, 0, 0.389074, 22.135002, -25.579304)" fill-opacity="1" fill="#fce586" fill-rule="nonzero" stroke-linejoin="miter" d="M 1050.268518 1150.652479 L 1354.059358 1331.139227 L 1341.753144 1338.337814 L 1038.303586 1156.676401 Z M 1050.268518 1150.652479 " stroke="#000000" stroke-width="1" stroke-opacity="1" stroke-miterlimit="10"/><path stroke-linecap="butt" transform="matrix(0.389158, 0, 0, 0.389074, 22.135002, -25.579304)" fill-opacity="1" fill="#e5e1d3" fill-rule="nonzero" stroke-linejoin="miter" d="M 195.448372 1397.583088 C 231.493735 1417.994144 267.107477 1439.077872 302.570653 1460.412596 C 320.337373 1471.014699 337.963566 1481.857759 355.660022 1492.59038 L 408.508487 1525.149679 L 461.126084 1558.080454 C 478.591673 1569.19459 496.127526 1580.168168 513.512814 1591.412823 C 548.353654 1613.751534 583.043928 1636.341242 617.302581 1659.603622 C 581.257218 1639.202605 545.643476 1618.108838 510.170262 1596.784154 C 492.393504 1586.182051 474.777349 1575.328951 457.080893 1564.59633 L 404.242466 1532.026991 L 351.634907 1499.086176 C 334.169317 1487.99212 316.643502 1476.998462 299.258214 1465.763847 C 264.407337 1443.415096 229.717063 1420.835428 195.448372 1397.583088 Z M 195.448372 1397.583088 " stroke="#000000" stroke-width="1" stroke-opacity="1" stroke-miterlimit="10"/><path stroke-linecap="butt" transform="matrix(0.389158, 0, 0, 0.389074, 22.135002, -25.579304)" fill-opacity="1" fill="#e5e1d3" fill-rule="nonzero" stroke-linejoin="miter" d="M 193.591398 1443.204258 C 229.626724 1463.605275 265.250503 1484.699042 300.71368 1506.033766 C 318.4804 1516.62583 336.096555 1527.478929 353.803049 1538.211551 L 406.651513 1570.77085 L 459.26911 1603.701624 C 476.7347 1614.805721 494.270553 1625.789339 511.645803 1637.033993 C 546.486642 1659.372705 581.176916 1681.962413 615.43557 1705.224792 C 579.400244 1684.823776 543.776465 1663.730008 508.313288 1642.395284 C 490.526493 1631.803221 472.920376 1620.950121 455.223919 1610.2175 L 402.375455 1577.648161 L 349.767895 1544.707347 C 332.312344 1533.61329 314.77649 1522.619632 297.40124 1511.385017 C 262.550363 1489.036266 227.860089 1466.456598 193.591398 1443.204258 Z M 193.591398 1443.204258 " stroke="#000000" stroke-width="1" stroke-opacity="1" stroke-miterlimit="10"/><path stroke-linecap="butt" transform="matrix(0.389158, 0, 0, 0.389074, 22.135002, -25.579304)" fill-opacity="1" fill="#e5e1d3" fill-rule="nonzero" stroke-linejoin="miter" d="M 195.448372 1490.502087 C 231.493735 1510.913143 267.107477 1531.996871 302.570653 1553.331595 C 320.337373 1563.933698 337.963566 1574.776758 355.660022 1585.509379 L 408.508487 1618.068679 L 461.126084 1650.999453 C 478.591673 1662.113589 496.127526 1673.087168 513.512814 1684.331822 C 548.353654 1706.670534 583.043928 1729.260242 617.302581 1752.522621 C 581.257218 1732.121605 545.643476 1711.027837 510.170262 1689.703153 C 492.393504 1679.10105 474.777349 1668.24795 457.080893 1657.515329 L 404.242466 1624.94599 L 351.634907 1592.005175 C 334.169317 1580.911119 316.643502 1569.917461 299.258214 1558.682846 C 264.407337 1536.344135 229.717063 1513.764467 195.448372 1490.502087 Z M 195.448372 1490.502087 " stroke="#000000" stroke-width="1" stroke-opacity="1" stroke-miterlimit="10"/><path stroke-linecap="butt" transform="matrix(0.389158, 0, 0, 0.389074, 22.135002, -25.579304)" fill-opacity="1" fill="#e5e1d3" fill-rule="nonzero" stroke-linejoin="miter" d="M 721.373403 1663.007138 C 813.700122 1637.395429 906.398235 1613.3399 999.236877 1589.826524 C 1045.621065 1577.929277 1092.135744 1566.594264 1138.590197 1554.988174 L 1278.154308 1521.033333 L 1417.919174 1487.921841 L 1487.891946 1471.70745 L 1522.883351 1463.615315 L 1557.914906 1455.703897 C 1651.295583 1434.499691 1744.816788 1413.857718 1838.719425 1394.792004 C 1746.402744 1420.423793 1653.694592 1444.489362 1560.855951 1468.002738 L 1526.045225 1476.837824 L 1491.204385 1485.522312 L 1421.502631 1502.841088 L 1281.928482 1536.775849 L 1142.163616 1569.867262 C 1095.498372 1580.619963 1048.913429 1591.6337 1002.177921 1602.075165 C 908.787207 1623.279371 815.255964 1643.921344 721.373403 1663.007138 Z M 721.373403 1663.007138 " stroke="#000000" stroke-width="1" stroke-opacity="1" stroke-miterlimit="10"/><path stroke-linecap="butt" transform="matrix(0.389158, 0, 0, 0.389074, 22.135002, -25.579304)" fill-opacity="1" fill="#e5e1d3" fill-rule="nonzero" stroke-linejoin="miter" d="M 721.373403 1705.756905 C 813.700122 1680.145196 906.398235 1656.089667 999.236877 1632.576291 C 1045.621065 1620.679045 1092.135744 1609.344031 1138.590197 1597.737941 L 1278.154308 1563.7831 L 1417.919174 1530.671608 L 1487.891946 1514.457218 L 1522.883351 1506.375122 L 1557.914906 1498.453664 C 1651.295583 1477.249458 1744.816788 1456.607485 1838.719425 1437.541772 C 1746.402744 1463.17356 1653.694592 1487.239129 1560.855951 1510.752505 L 1526.045225 1519.587591 L 1491.204385 1528.272079 L 1421.502631 1545.590855 L 1281.928482 1579.525617 L 1142.163616 1612.617029 C 1095.498372 1623.36973 1048.913429 1634.383468 1002.177921 1644.824933 C 908.787207 1666.019099 815.255964 1686.671112 721.373403 1705.756905 Z M 721.373403 1705.756905 " stroke="#000000" stroke-width="1" stroke-opacity="1" stroke-miterlimit="10"/><path stroke-linecap="butt" transform="matrix(0.389158, 0, 0, 0.389074, 22.135002, -25.579304)" fill-opacity="1" fill="#e5e1d3" fill-rule="nonzero" stroke-linejoin="miter" d="M 721.373403 1753.145093 C 813.700122 1727.543424 906.398235 1703.477855 999.236877 1679.974519 C 1045.621065 1668.067232 1092.135744 1656.732219 1138.590197 1645.126129 L 1278.154308 1611.171288 L 1417.919174 1578.059796 L 1487.891946 1561.845405 L 1522.883351 1553.76331 L 1557.914906 1545.841852 C 1651.295583 1524.637646 1744.816788 1503.995673 1838.719425 1484.929959 C 1746.402744 1510.561748 1653.694592 1534.627317 1560.855951 1558.140693 L 1526.045225 1566.975779 L 1491.204385 1575.660267 L 1421.502631 1592.979043 L 1281.928482 1626.923844 L 1142.163616 1659.995177 C 1095.498372 1670.747878 1048.913429 1681.761615 1002.177921 1692.21312 C 908.787207 1713.407286 815.255964 1734.04926 721.373403 1753.145093 Z M 721.373403 1753.145093 " stroke="#000000" stroke-width="1" stroke-opacity="1" stroke-miterlimit="10"/><path stroke-linecap="butt" transform="matrix(0.389158, 0, 0, 0.389074, 22.135002, -25.579304)" fill-opacity="1" fill="#f04d6e" fill-rule="nonzero" stroke-linejoin="miter" d="M 1588.419462 1460.583274 L 1675.094958 1438.726476 C 1675.094958 1438.726476 1688.103811 1488.443914 1676.018426 1528.402597 L 1642.803693 1500.521878 L 1611.666763 1542.09698 C 1611.676801 1542.09698 1611.415821 1477.771532 1588.419462 1460.583274 Z M 1588.419462 1460.583274 " stroke="#000000" stroke-width="1" stroke-opacity="1" stroke-miterlimit="10"/><path stroke-linecap="butt" transform="matrix(0.389158, 0, 0, 0.389074, 22.135002, -25.579304)" fill-opacity="1" fill="#f04d6e" fill-rule="nonzero" stroke-linejoin="miter" d="M 1041.294819 1633.148564 L 1128.361785 1613.480458 C 1128.361785 1613.480458 1141.360601 1662.354546 1129.275216 1702.31323 L 1096.060483 1674.43251 L 1064.933591 1716.007613 C 1064.933591 1716.017653 1064.291178 1650.336822 1041.294819 1633.148564 Z M 1041.294819 1633.148564 " stroke="#000000" stroke-width="1" stroke-opacity="1" stroke-miterlimit="10"/><path stroke-linecap="butt" transform="matrix(0.389158, 0, 0, 0.389074, 22.135002, -25.579304)" fill-opacity="1" fill="#ffffff" fill-rule="nonzero" stroke-linejoin="miter" d="M 1887.723452 1002.895709 L 1896.436171 1220.048062 L 1390.32555 1522.639712 C 1390.32555 1522.639712 1319.439348 1466.918432 1366.395685 1320.115449 Z M 1887.723452 1002.895709 " stroke="#000000" stroke-width="1" stroke-opacity="1" stroke-miterlimit="10"/><path stroke-linecap="butt" transform="matrix(0.389158, 0, 0, 0.389074, 22.135002, -25.579304)" fill-opacity="1" fill="#55c1ae" fill-rule="nonzero" stroke-linejoin="miter" d="M 1892.91294 985.516693 L 1353.74819 1313.348577 L 87.141643 1012.614303 L 653.388094 714.580755 Z M 1892.91294 985.516693 " stroke="#000000" stroke-width="1" stroke-opacity="1" stroke-miterlimit="10"/><g mask="url(#54e22ec74d)"><g transform="matrix(1, 0, 0, 1, 102, 266)"><g clip-path="url(#4f62f10da5)"><path fill="#07b28f" d="M 443.855469 203.222656 C 443.585938 203.222656 443.324219 203.191406 443.058594 203.128906 L 5.210938 99.191406 C 3.816406 98.859375 2.769531 97.691406 2.589844 96.269531 C 2.410156 94.84375 3.132812 93.457031 4.40625 92.785156 L 175.433594 2.792969 C 176.15625 2.414062 176.988281 2.300781 177.777344 2.476562 L 608.699219 96.644531 C 610.078125 96.945312 611.132812 98.054688 611.367188 99.449219 C 611.59375 100.835938 610.960938 102.230469 609.753906 102.960938 L 445.648438 202.71875 C 445.105469 203.050781 444.484375 203.222656 443.855469 203.222656 Z M 15.753906 94.605469 L 443.277344 196.089844 L 598.808594 101.539062 L 177.527344 9.480469 Z M 15.753906 94.605469 " fill-opacity="1" fill-rule="nonzero"/><g clip-path="url(#f6c4afde9f)"><path stroke-linecap="butt" transform="matrix(0.389158, 0, 0, 0.389074, -79.864999, -291.579316)" fill="none" stroke-linejoin="miter" d="M 1345.778262 1271.743385 C 1345.085661 1271.743385 1344.413136 1271.663066 1343.730572 1271.502428 L 218.615375 1004.36156 C 215.031917 1003.508171 212.341815 1000.50625 211.880081 996.851737 C 211.418347 993.187184 213.275321 989.623031 216.547609 987.896173 L 656.028011 756.597642 C 657.884984 755.623775 660.023013 755.332618 662.050628 755.784413 L 1769.368992 997.815565 C 1772.912299 998.588635 1775.622476 1001.439958 1776.224738 1005.024191 C 1776.806924 1008.588345 1775.180818 1012.172579 1772.07917 1014.050035 L 1350.385564 1270.448241 C 1348.990325 1271.30163 1347.394331 1271.743385 1345.778262 1271.743385 Z M 245.707113 992.574752 L 1344.292683 1253.410581 L 1743.953549 1010.395522 L 661.408215 773.7859 Z M 245.707113 992.574752 " stroke="#000000" stroke-width="1" stroke-opacity="1" stroke-miterlimit="10"/></g></g></g></g><path stroke-linecap="butt" transform="matrix(0.389158, 0, 0, 0.389074, 22.135002, -25.579304)" fill-opacity="1" fill="#00b59c" fill-rule="nonzero" stroke-linejoin="miter" d="M 87.141643 1012.614303 C 87.141643 1012.614303 32.054772 1178.784196 97.068923 1234.776552 C 162.093111 1290.768908 1364.5889 1565.3192 1364.5889 1565.3192 L 1922.313349 1240.31856 L 1923.166553 1204.074629 L 1390.32555 1522.639712 C 1390.32555 1522.639712 1352.403138 1496.897485 1353.74819 1429.16852 C 1355.103278 1361.439555 1366.385648 1320.115449 1366.385648 1320.115449 L 1887.713414 1002.895709 L 1891.60804 985.225537 L 1353.738152 1313.338537 Z M 87.141643 1012.614303 " stroke="#000000" stroke-width="1" stroke-opacity="1" stroke-miterlimit="10"/><path stroke-linecap="butt" transform="matrix(0.389158, 0, 0, 0.389074, 22.135002, -25.579304)" fill-opacity="1" fill="#039e84" fill-rule="nonzero" stroke-linejoin="miter" d="M 1923.166553 1204.074629 L 1895.793759 1204.074629 L 1896.436171 1220.048062 Z M 1923.166553 1204.074629 " stroke="#000000" stroke-width="1" stroke-opacity="1" stroke-miterlimit="10"/><path stroke-linecap="butt" transform="matrix(0.389158, 0, 0, 0.389074, 22.135002, -25.579304)" fill-opacity="1" fill="#65c5b3" fill-rule="nonzero" stroke-linejoin="miter" d="M 288.929426 1060.524564 C 288.929426 1060.524564 200.477257 1221.413485 290.515382 1301.120015 L 337.692548 1314.201966 C 337.692548 1314.201966 259.16766 1220.148461 359.123027 1077.190749 Z M 288.929426 1060.524564 " stroke="#000000" stroke-width="1" stroke-opacity="1" stroke-miterlimit="10"/><path stroke-linecap="butt" transform="matrix(0.389158, 0, 0, 0.389074, 22.135002, -25.579304)" fill-opacity="1" fill="#65c5b3" fill-rule="nonzero" stroke-linejoin="miter" d="M 397.507173 1086.256751 C 397.507173 1086.256751 309.07508 1251.051182 399.133279 1330.757712 L 447.093386 1343.397908 C 447.093386 1343.397908 367.745407 1245.890688 467.710812 1102.932976 Z M 397.507173 1086.256751 " stroke="#000000" stroke-width="1" stroke-opacity="1" stroke-miterlimit="10"/><path stroke-linecap="butt" transform="matrix(0.389158, 0, 0, 0.389074, 22.135002, -25.579304)" fill-opacity="1" fill="#65c5b3" fill-rule="nonzero" stroke-linejoin="miter" d="M 923.893938 1210.700943 C 923.893938 1210.700943 836.515803 1382.854598 926.563965 1462.561128 L 973.690943 1473.825863 C 973.690943 1473.825863 894.122134 1370.33488 994.077501 1227.357088 Z M 923.893938 1210.700943 " stroke="#000000" stroke-width="1" stroke-opacity="1" stroke-miterlimit="10"/><path stroke-linecap="butt" transform="matrix(0.389158, 0, 0, 0.389074, 22.135002, -25.579304)" fill-opacity="1" fill="#65c5b3" fill-rule="nonzero" stroke-linejoin="miter" d="M 1032.481723 1236.443171 C 1032.481723 1236.443171 944.942984 1408.697224 1034.991146 1488.413794 L 1083.041592 1499.778927 C 1083.041592 1499.778927 1002.709919 1396.067068 1102.665286 1253.109355 Z M 1032.481723 1236.443171 " stroke="#000000" stroke-width="1" stroke-opacity="1" stroke-miterlimit="10"/><path stroke-linecap="butt" transform="matrix(0.389158, 0, 0, 0.389074, 22.135002, -25.579304)" fill-opacity="1" fill="#e5e1d3" fill-rule="nonzero" stroke-linejoin="miter" d="M 1874.503808 1060.253488 C 1836.812263 1087.702493 1798.19725 1113.655557 1759.261031 1139.086549 C 1739.878242 1151.947622 1720.174247 1164.256503 1700.610779 1176.836461 L 1641.438567 1213.743024 L 1581.784545 1249.826318 C 1561.709155 1261.572966 1541.834519 1273.60073 1521.588488 1285.056222 C 1481.29718 1308.278442 1440.674629 1330.958509 1399.128609 1352.142635 C 1436.810116 1324.67355 1475.415091 1298.710446 1514.35131 1273.269415 C 1533.734099 1260.408341 1553.448132 1248.1095 1573.001562 1235.529542 L 1632.183812 1198.653099 L 1691.857909 1162.579845 C 1711.923261 1150.833197 1731.817973 1138.815472 1752.053966 1127.34994 C 1792.345274 1104.13776 1832.967826 1081.447654 1874.503808 1060.253488 Z M 1874.503808 1060.253488 " stroke="#000000" stroke-width="1" stroke-opacity="1" stroke-miterlimit="10"/><path stroke-linecap="butt" transform="matrix(0.389158, 0, 0, 0.389074, 22.135002, -25.579304)" fill-opacity="1" fill="#e5e1d3" fill-rule="nonzero" stroke-linejoin="miter" d="M 1868.079683 1171.916924 C 1830.3781 1199.36593 1791.783163 1225.329034 1752.836906 1250.760025 C 1733.464155 1263.621099 1713.750122 1275.92998 1694.186654 1288.509938 L 1635.034517 1325.406461 L 1575.370458 1361.499794 C 1555.295068 1373.236403 1535.420432 1385.274207 1515.184439 1396.729699 C 1474.893131 1419.951919 1434.260541 1442.631986 1392.724559 1463.806072 C 1430.396029 1436.336987 1469.011042 1410.383923 1507.937223 1384.942891 C 1527.320012 1372.081818 1547.044083 1359.782977 1566.587475 1347.203019 L 1625.769725 1310.316536 L 1685.453859 1274.253322 C 1705.509174 1262.496634 1725.413923 1250.488949 1745.639879 1239.023417 C 1785.931187 1215.811237 1826.553738 1193.12113 1868.079683 1171.916924 Z M 1868.079683 1171.916924 " stroke="#000000" stroke-width="1" stroke-opacity="1" stroke-miterlimit="10"/><path stroke-linecap="butt" transform="matrix(0.389158, 0, 0, 0.389074, 22.135002, -25.579304)" fill-opacity="1" fill="#e5e1d3" fill-rule="nonzero" stroke-linejoin="miter" d="M 1869.87643 1116.828156 C 1831.462171 1143.102497 1792.646405 1168.734286 1753.439168 1193.723523 C 1714.32227 1218.853318 1674.844016 1243.390761 1635.28546 1267.807725 C 1595.616489 1292.054012 1555.877254 1316.15974 1515.766625 1339.683156 C 1475.746335 1363.34713 1435.334575 1386.358513 1394.521307 1408.717304 C 1432.925528 1382.442964 1471.741295 1356.801135 1510.948531 1331.821938 C 1550.065429 1306.702183 1589.553721 1282.16474 1629.112277 1257.737735 C 1668.781248 1233.521568 1708.53052 1209.4058 1748.64115 1185.892424 C 1788.66144 1162.22845 1829.083238 1139.207027 1869.87643 1116.828156 Z M 1869.87643 1116.828156 " stroke="#000000" stroke-width="1" stroke-opacity="1" stroke-miterlimit="10"/><path stroke-linecap="butt" transform="matrix(0.389158, 0, 0, 0.389074, 22.135002, -25.579304)" fill-opacity="1" fill="#ffffff" fill-rule="nonzero" stroke-linejoin="miter" d="M 1914.714814 963.850653 L 1911.141394 795.46195 L 699.822472 1073.817352 L 237.586616 801.556151 C 237.586616 801.556151 227.518808 793.062421 218.906465 797.078369 C 210.304161 801.104357 209.581447 808.664379 209.581447 808.664379 L 203.217548 946.853153 C 203.217548 946.853153 202.364344 955.698279 208.778431 959.774466 C 215.212593 963.840613 688.670592 1260.267783 688.670592 1260.267783 Z M 1914.714814 963.850653 " stroke="#000000" stroke-width="1" stroke-opacity="1" stroke-miterlimit="10"/><path stroke-linecap="butt" transform="matrix(0.389158, 0, 0, 0.389074, 22.135002, -25.579304)" fill-opacity="1" fill="#fecf09" fill-rule="nonzero" stroke-linejoin="miter" d="M 1333.532272 439.809586 L 1928.376117 741.457487 L 704.781093 1033.557473 L 188.150968 723.205003 Z M 1333.532272 439.809586 " stroke="#000000" stroke-width="1" stroke-opacity="1" stroke-miterlimit="10"/><g mask="url(#1a0af276ca)"><g transform="matrix(1, 0, 0, 1, 131, 157)"><g clip-path="url(#a1e361f5d1)"><path fill="#f9a11b" d="M 168.003906 205.085938 C 167.582031 205.085938 167.15625 204.972656 166.789062 204.746094 L 3.980469 106.96875 C 3.15625 106.476562 2.714844 105.539062 2.859375 104.59375 C 3.003906 103.648438 3.699219 102.875 4.628906 102.648438 L 407.613281 2.957031 C 408.164062 2.820312 408.746094 2.886719 409.253906 3.144531 L 597.203125 98.4375 C 598.085938 98.882812 598.601562 99.835938 598.484375 100.820312 C 598.367188 101.804688 597.648438 102.617188 596.683594 102.84375 L 168.554688 205.019531 C 168.375 205.0625 168.1875 205.085938 168.003906 205.085938 Z M 11.328125 105.859375 L 168.398438 200.195312 L 589.320312 99.738281 L 407.898438 7.757812 Z M 11.328125 105.859375 " fill-opacity="1" fill-rule="nonzero"/><g clip-path="url(#cf35de63ad)"><path stroke-linecap="butt" transform="matrix(0.389158, 0, 0, 0.389074, -108.864999, -182.579301)" fill="none" stroke-linejoin="miter" d="M 711.456163 996.379826 C 710.372092 996.379826 709.277983 996.08867 708.33444 995.506357 L 289.973348 744.198365 C 287.855395 742.933342 286.721135 740.523773 287.09253 738.094124 C 287.463925 735.664476 289.250634 733.676581 291.639606 733.094269 L 1327.168376 476.86674 C 1328.583691 476.515345 1330.079307 476.686022 1331.384208 477.348654 L 1814.347904 722.271289 C 1816.616423 723.415834 1817.941399 725.865562 1817.640268 728.395609 C 1817.339137 730.925657 1815.492201 733.01395 1813.01289 733.596262 L 712.871478 996.209148 C 712.409744 996.319587 711.927934 996.379826 711.456163 996.379826 Z M 308.854253 741.347042 L 712.46997 983.809909 L 1794.091835 725.614565 L 1327.901127 489.205741 Z M 308.854253 741.347042 " stroke="#000000" stroke-width="1" stroke-opacity="1" stroke-miterlimit="10"/></g></g></g></g><path fill="#f9a11b" d="M 776.609375 347.167969 L 776.609375 366.066406 L 292.308594 487.175781 L 86.777344 355.078125 C 86.777344 355.078125 71.914062 302.980469 95.355469 255.800781 L 296.40625 376.550781 L 772.578125 262.90625 L 772.578125 282.375 L 294.476562 392.214844 L 112.351562 284.964844 C 108.597656 282.742188 103.828125 285.316406 103.632812 289.671875 L 101.195312 343.28125 C 101.109375 345.207031 102.0625 347.03125 103.695312 348.054688 L 290.136719 464.757812 Z M 776.609375 347.167969 " fill-opacity="1" fill-rule="nonzero"/><g clip-path="url(#8a931a894c)"><path stroke-linecap="butt" transform="matrix(0.389158, 0, 0, 0.389074, 22.135002, -25.579304)" fill="none" stroke-linejoin="miter" d="M 1938.735018 958.037568 L 1938.735018 1006.610461 L 694.251551 1317.886598 L 166.108189 978.368306 C 166.108189 978.368306 127.91476 844.466556 188.150968 723.205003 L 704.781093 1033.557473 L 1928.376117 741.467527 L 1928.376117 791.506241 L 699.822472 1073.817352 L 231.824979 798.162675 C 222.178754 792.449988 209.922728 799.066263 209.420843 810.260718 L 203.157322 948.047898 C 202.936492 952.997554 205.38569 957.686173 209.581447 960.316619 L 688.670592 1260.267783 Z M 1938.735018 958.037568 " stroke="#000000" stroke-width="1" stroke-opacity="1" stroke-miterlimit="10"/></g><g mask="url(#f12bec1f9b)"><g transform="matrix(1, 0, 0, 1, 287, 281)"><g clip-path="url(#79901037e4)"><path fill="#f9a11b" d="M 3.136719 183.761719 L 7.476562 111.214844 L 478.871094 2.917969 L 480.261719 68.429688 Z M 3.136719 183.761719 " fill-opacity="1" fill-rule="nonzero"/><g clip-path="url(#4733f8be40)"><path stroke-linecap="butt" transform="matrix(0.389158, 0, 0, 0.389074, -264.865006, -306.579316)" fill="none" stroke-linejoin="miter" d="M 688.670613 1260.277853 L 699.822493 1073.817382 L 1911.141415 795.47202 L 1914.714835 963.850684 Z M 688.670613 1260.277853 " stroke="#000000" stroke-width="1" stroke-opacity="1" stroke-miterlimit="10"/></g></g></g></g><path fill="#e98d24" d="M 776.609375 347.167969 L 767.105469 342.023438 L 767.261719 349.429688 Z M 776.609375 347.167969 " fill-opacity="1" fill-rule="nonzero"/><g clip-path="url(#c19edf1262)"><path stroke-linecap="butt" transform="matrix(0.389158, 0, 0, 0.389074, 22.135002, -25.579304)" fill="none" stroke-linejoin="miter" d="M 1938.735018 958.037568 L 1914.313306 944.815059 L 1914.714814 963.850653 Z M 1938.735018 958.037568 " stroke="#000000" stroke-width="1" stroke-opacity="1" stroke-miterlimit="10"/></g><path stroke-linecap="butt" transform="matrix(0.389158, 0, 0, 0.389074, 22.135002, -25.579304)" fill-opacity="1" fill="#e98d24" fill-rule="nonzero" stroke-linejoin="miter" d="M 1928.376117 791.496201 L 1911.211658 798.945785 L 1911.141394 795.471989 Z M 1928.376117 791.496201 " stroke="#000000" stroke-width="1" stroke-opacity="1" stroke-miterlimit="10"/><path stroke-linecap="butt" transform="matrix(0.389158, 0, 0, 0.389074, 22.135002, -25.579304)" fill-opacity="1" fill="#fce586" fill-rule="nonzero" stroke-linejoin="miter" d="M 1291.584744 528.632318 L 1612.238912 704.88224 L 1489.859334 747.913124 L 1186.409776 557.185709 Z M 1291.584744 528.632318 " stroke="#000000" stroke-width="1" stroke-opacity="1" stroke-miterlimit="10"/><path stroke-linecap="butt" transform="matrix(0.389158, 0, 0, 0.389074, 22.135002, -25.579304)" fill-opacity="1" fill="#fce586" fill-rule="nonzero" stroke-linejoin="miter" d="M 1090.037866 592.425653 L 1393.838744 772.922441 L 1381.532529 780.121028 L 1078.082971 598.459615 Z M 1090.037866 592.425653 " stroke="#000000" stroke-width="1" stroke-opacity="1" stroke-miterlimit="10"/><path stroke-linecap="butt" transform="matrix(0.389158, 0, 0, 0.389074, 22.135002, -25.579304)" fill-opacity="1" fill="#e5e1d3" fill-rule="nonzero" stroke-linejoin="miter" d="M 235.227757 839.356262 C 271.27312 859.767318 306.886862 880.861086 342.350039 902.18577 C 360.116759 912.787873 377.742951 923.640973 395.439408 934.373594 L 448.287872 966.932894 L 500.905469 999.863668 C 518.371059 1010.967764 535.906912 1021.951382 553.2922 1033.185997 C 588.133039 1055.534748 622.823313 1078.124457 657.081966 1101.376796 C 621.036603 1080.97578 585.422861 1059.892052 549.949647 1038.557328 C 532.172889 1027.955225 514.556735 1017.112165 496.860278 1006.379544 L 444.021852 973.810205 L 391.414292 940.86939 C 373.948703 929.765294 356.422887 918.781676 339.037599 907.537021 C 304.186722 885.19831 269.496448 862.618642 235.227757 839.356262 Z M 235.227757 839.356262 " stroke="#000000" stroke-width="1" stroke-opacity="1" stroke-miterlimit="10"/><path stroke-linecap="butt" transform="matrix(0.389158, 0, 0, 0.389074, 22.135002, -25.579304)" fill-opacity="1" fill="#e5e1d3" fill-rule="nonzero" stroke-linejoin="miter" d="M 233.370784 884.977433 C 269.406109 905.388489 305.029889 926.482256 340.493065 947.806941 C 358.259785 958.409044 375.87594 969.262143 393.582434 979.994765 L 446.430898 1012.554064 L 499.048496 1045.484838 C 516.514085 1056.588935 534.049938 1067.572553 551.425188 1078.807168 C 586.266028 1101.145879 620.956302 1123.735587 655.214955 1146.997966 C 619.17963 1126.59695 583.55585 1105.513223 548.092674 1084.178498 C 530.305878 1073.576395 512.699761 1062.733335 495.003305 1052.000714 L 442.164878 1019.431375 L 389.547281 986.490561 C 372.091729 975.386464 354.555876 964.402846 337.180626 953.158192 C 302.329749 930.81948 267.639475 908.239812 233.370784 884.977433 Z M 233.370784 884.977433 " stroke="#000000" stroke-width="1" stroke-opacity="1" stroke-miterlimit="10"/><path stroke-linecap="butt" transform="matrix(0.389158, 0, 0, 0.389074, 22.135002, -25.579304)" fill-opacity="1" fill="#e5e1d3" fill-rule="nonzero" stroke-linejoin="miter" d="M 235.227757 932.275261 C 271.27312 952.686318 306.886862 973.780085 342.350039 995.114809 C 360.116759 1005.706872 377.742951 1016.559972 395.439408 1027.292593 L 448.287872 1059.851893 L 500.905469 1092.782667 C 518.371059 1103.886764 535.906912 1114.870382 553.2922 1126.115036 C 588.133039 1148.453748 622.823313 1171.043456 657.081966 1194.295795 C 621.036603 1173.904819 585.422861 1152.811051 549.949647 1131.476327 C 532.172889 1120.884264 514.556735 1110.031164 496.860278 1099.298543 L 444.021852 1066.729204 L 391.414292 1033.78839 C 373.948703 1022.694333 356.422887 1011.700675 339.037599 1000.45602 C 304.186722 978.117309 269.496448 955.537641 235.227757 932.275261 Z M 235.227757 932.275261 " stroke="#000000" stroke-width="1" stroke-opacity="1" stroke-miterlimit="10"/><path stroke-linecap="butt" transform="matrix(0.389158, 0, 0, 0.389074, 22.135002, -25.579304)" fill-opacity="1" fill="#e5e1d3" fill-rule="nonzero" stroke-linejoin="miter" d="M 761.152788 1104.790352 C 853.479507 1079.178643 946.177621 1055.123114 1039.016262 1031.609738 C 1085.400451 1019.712491 1131.915129 1008.367438 1178.369582 996.771388 L 1317.933694 962.806507 L 1457.698559 929.695015 L 1527.671331 913.490664 L 1562.662736 905.398529 L 1597.694292 897.477071 C 1691.085006 876.282905 1784.596173 855.640932 1878.49881 836.565178 C 1786.182129 862.196967 1693.473978 886.272576 1600.635336 909.775912 L 1565.834648 918.621038 L 1530.983771 927.295486 L 1461.282016 944.624302 L 1321.707867 978.559063 L 1181.943002 1011.650476 C 1135.277757 1022.403177 1088.692815 1033.406874 1041.957307 1043.858379 C 948.556554 1065.062585 855.03535 1085.704559 761.152788 1104.790352 Z M 761.152788 1104.790352 " stroke="#000000" stroke-width="1" stroke-opacity="1" stroke-miterlimit="10"/><path stroke-linecap="butt" transform="matrix(0.389158, 0, 0, 0.389074, 22.135002, -25.579304)" fill-opacity="1" fill="#e5e1d3" fill-rule="nonzero" stroke-linejoin="miter" d="M 761.152788 1147.540119 C 853.479507 1121.92841 946.177621 1097.872881 1039.016262 1074.359505 C 1085.400451 1062.462259 1131.915129 1051.117206 1178.369582 1039.521155 L 1317.933694 1005.556274 L 1457.698559 972.454822 L 1527.671331 956.240432 L 1562.662736 948.148296 L 1597.694292 940.226839 C 1691.085006 919.032673 1784.596173 898.390699 1878.49881 879.324986 C 1786.182129 904.946735 1693.473978 929.022343 1600.635336 952.52568 L 1565.834648 961.370805 L 1530.983771 970.045253 L 1461.282016 987.374069 L 1321.707867 1021.308831 L 1181.943002 1054.400243 C 1135.277757 1065.152944 1088.692815 1076.156642 1041.957307 1086.608147 C 948.556554 1107.802313 855.03535 1128.454326 761.152788 1147.540119 Z M 761.152788 1147.540119 " stroke="#000000" stroke-width="1" stroke-opacity="1" stroke-miterlimit="10"/><path stroke-linecap="butt" transform="matrix(0.389158, 0, 0, 0.389074, 22.135002, -25.579304)" fill-opacity="1" fill="#e5e1d3" fill-rule="nonzero" stroke-linejoin="miter" d="M 761.152788 1194.928307 C 853.479507 1169.316598 946.177621 1145.261069 1039.016262 1121.747693 C 1085.400451 1109.850447 1131.915129 1098.505393 1178.369582 1086.909343 L 1317.933694 1052.954502 L 1457.698559 1019.84301 L 1527.671331 1003.628619 L 1562.662736 995.536484 L 1597.694292 987.625066 C 1691.085006 966.42086 1784.596173 945.778887 1878.49881 926.713173 C 1786.182129 952.344962 1693.473978 976.410531 1600.635336 999.923907 L 1565.834648 1008.758993 L 1530.983771 1017.443481 L 1461.282016 1034.762257 L 1321.707867 1068.697018 L 1181.943002 1101.788431 C 1135.277757 1112.541132 1088.692815 1123.554869 1041.957307 1133.996334 C 948.556554 1155.190501 855.03535 1175.832474 761.152788 1194.928307 Z M 761.152788 1194.928307 " stroke="#000000" stroke-width="1" stroke-opacity="1" stroke-miterlimit="10"/><path stroke-linecap="butt" transform="matrix(0.389158, 0, 0, 0.389074, 22.135002, -25.579304)" fill-opacity="1" fill="#f04d6e" fill-rule="nonzero" stroke-linejoin="miter" d="M 1628.198847 902.356448 L 1714.874344 880.50969 C 1714.874344 880.50969 1727.883196 930.217088 1715.797812 970.175772 L 1682.583079 942.295052 L 1651.446149 983.880195 C 1651.456186 983.880195 1651.195206 919.554746 1628.198847 902.356448 Z M 1628.198847 902.356448 " stroke="#000000" stroke-width="1" stroke-opacity="1" stroke-miterlimit="10"/><path stroke-linecap="butt" transform="matrix(0.389158, 0, 0, 0.389074, 22.135002, -25.579304)" fill-opacity="1" fill="#f04d6e" fill-rule="nonzero" stroke-linejoin="miter" d="M 1081.074204 1074.931778 L 1168.141171 1055.263672 C 1168.141171 1055.263672 1181.139986 1104.12772 1169.064639 1144.086404 L 1135.839868 1116.205684 L 1104.712976 1157.790827 C 1104.712976 1157.800867 1104.060526 1092.120036 1081.074204 1074.931778 Z M 1081.074204 1074.931778 " stroke="#000000" stroke-width="1" stroke-opacity="1" stroke-miterlimit="10"/><path stroke-linecap="butt" transform="matrix(0.389158, 0, 0, 0.389074, 22.135002, -25.579304)" fill-opacity="1" fill="#ffffff" fill-rule="nonzero" stroke-linejoin="miter" d="M 161.460737 654.271254 L 166.27883 485.91267 L 1375.499875 773.263796 L 1839.74327 504.436231 C 1839.74327 504.436231 1849.871304 496.022819 1858.453533 500.099007 C 1867.025725 504.185234 1867.69825 511.745256 1867.69825 511.745256 L 1873.038304 649.98423 C 1873.038304 649.98423 1873.84132 658.839395 1867.377044 662.855343 C 1860.922806 666.881331 1385.266552 959.794546 1385.266552 959.794546 Z M 161.460737 654.271254 " stroke="#000000" stroke-width="1" stroke-opacity="1" stroke-miterlimit="10"/><g clip-path="url(#c84b6cc983)"><path fill="#f0536d" d="M 312.648438 26.773438 L 80.289062 142.417969 L 555.613281 259.597656 L 757.550781 140.34375 Z M 312.648438 26.773438 " fill-opacity="1" fill-rule="nonzero"/></g><g clip-path="url(#90ad8e0508)"><path stroke-linecap="butt" transform="matrix(0.389158, 0, 0, 0.389074, 22.135002, -25.579304)" fill="none" stroke-linejoin="miter" d="M 746.517829 134.557371 L 149.435578 431.787729 L 1370.852422 732.963757 L 1889.761104 426.456558 Z M 746.517829 134.557371 " stroke="#000000" stroke-width="1" stroke-opacity="1" stroke-miterlimit="10"/></g><g mask="url(#4ae8f93b94)"><g transform="matrix(1, 0, 0, 1, 121, 38)"><g clip-path="url(#9456632c9c)"><path fill="#ffffff" d="M 432.117188 207.109375 C 432.542969 207.113281 432.964844 207.003906 433.339844 206.78125 L 596.867188 110.210938 C 597.691406 109.726562 598.140625 108.789062 598.007812 107.84375 C 597.871094 106.894531 597.179688 106.121094 596.253906 105.886719 L 194.015625 3.210938 C 193.464844 3.070312 192.882812 3.132812 192.378906 3.382812 L 3.726562 97.277344 C 2.835938 97.71875 2.320312 98.667969 2.429688 99.652344 C 2.539062 100.636719 3.25 101.449219 4.214844 101.6875 L 431.574219 207.039062 C 431.75 207.085938 431.933594 207.109375 432.117188 207.109375 Z M 589.527344 109.050781 L 431.761719 202.21875 L 11.601562 98.636719 L 193.695312 8.011719 Z M 589.527344 109.050781 " fill-opacity="1" fill-rule="nonzero"/><g clip-path="url(#29bd622629)"><path stroke-linecap="butt" transform="matrix(0.389158, 0, 0, 0.389074, -98.864999, -63.579301)" fill="none" stroke-linejoin="miter" d="M 1364.438337 695.725872 C 1365.532446 695.735912 1366.616517 695.454795 1367.580136 694.882523 L 1787.788163 446.67685 C 1789.906116 445.431906 1791.060451 443.022337 1790.71917 440.592689 C 1790.36785 438.153 1788.591178 436.165106 1786.212245 435.562714 L 752.600675 171.664724 C 751.18536 171.303289 749.689743 171.463927 748.39488 172.106479 L 263.624399 413.43484 C 261.335805 414.569345 260.010829 417.009034 260.291884 419.539081 C 260.57294 422.069128 262.3998 424.157421 264.879111 424.769853 L 1363.043098 695.545154 C 1363.494794 695.665632 1363.966566 695.725872 1364.438337 695.725872 Z M 1768.927334 443.695009 L 1363.524907 683.155954 L 283.860392 416.928715 L 751.777584 184.003725 Z M 1768.927334 443.695009 " stroke="#000000" stroke-width="1" stroke-opacity="1" stroke-miterlimit="10"/></g></g></g></g><path stroke-linecap="butt" transform="matrix(0.389158, 0, 0, 0.389074, 22.135002, -25.579304)" fill-opacity="1" fill="#ed184a" fill-rule="nonzero" stroke-linejoin="miter" d="M 137.480683 648.287492 L 137.119326 696.860384 L 1379.26401 1017.373202 L 1909.906758 681.780499 C 1909.906758 681.780499 1949.103957 548.169905 1889.761104 426.456558 L 1370.842384 732.963757 L 149.435578 431.787729 L 149.074221 481.826443 L 1375.499875 773.263796 L 1845.524982 501.082914 C 1855.211358 495.440507 1867.417195 502.14714 1867.838778 513.351635 L 1873.068417 651.178974 C 1873.259133 656.12863 1870.769785 660.79717 1866.563991 663.407536 L 1385.246477 959.804586 Z M 137.480683 648.287492 " stroke="#000000" stroke-width="1" stroke-opacity="1" stroke-miterlimit="10"/><g mask="url(#228629d832)"><g transform="matrix(1, 0, 0, 1, 82, 161)"><g clip-path="url(#75982bd985)"><path fill="#f9a11b" d="M 479.222656 186.851562 L 475.421875 114.277344 L 4.84375 2.480469 L 2.96875 67.980469 Z M 479.222656 186.851562 " fill-opacity="1" fill-rule="nonzero"/><g clip-path="url(#aed2084db5)"><path stroke-linecap="butt" transform="matrix(0.389158, 0, 0, 0.389074, -59.864999, -186.579301)" fill="none" stroke-linejoin="miter" d="M 1385.266554 959.794539 L 1375.499877 773.26379 L 166.278833 485.922703 L 161.460739 654.271247 Z M 1385.266554 959.794539 " stroke="#000000" stroke-width="1" stroke-opacity="1" stroke-miterlimit="10"/></g></g></g></g><path stroke-linecap="butt" transform="matrix(0.389158, 0, 0, 0.389074, 22.135002, -25.579304)" fill-opacity="1" fill="#e98d24" fill-rule="nonzero" stroke-linejoin="miter" d="M 137.480683 648.287492 L 162.01281 635.2457 L 161.460737 654.271254 Z M 137.480683 648.287492 " stroke="#000000" stroke-width="1" stroke-opacity="1" stroke-miterlimit="10"/><path stroke-linecap="butt" transform="matrix(0.389158, 0, 0, 0.389074, 22.135002, -25.579304)" fill-opacity="1" fill="#e98d24" fill-rule="nonzero" stroke-linejoin="miter" d="M 149.074221 481.826443 L 166.178453 489.396505 L 166.27883 485.92271 Z M 149.074221 481.826443 " stroke="#000000" stroke-width="1" stroke-opacity="1" stroke-miterlimit="10"/><path stroke-linecap="butt" transform="matrix(0.389158, 0, 0, 0.389074, 22.135002, -25.579304)" fill-opacity="1" fill="#f7acbc" fill-rule="nonzero" stroke-linejoin="miter" d="M 787.812906 223.691339 L 465.853838 397.551772 L 587.902172 441.486244 L 892.757008 253.02784 Z M 787.812906 223.691339 " stroke="#000000" stroke-width="1" stroke-opacity="1" stroke-miterlimit="10"/><path stroke-linecap="butt" transform="matrix(0.389158, 0, 0, 0.389074, 22.135002, -25.579304)" fill-opacity="1" fill="#f7acbc" fill-rule="nonzero" stroke-linejoin="miter" d="M 988.8579 288.980615 L 683.732047 467.208392 L 695.988072 474.507377 L 1000.782682 295.104936 Z M 988.8579 288.980615 " stroke="#000000" stroke-width="1" stroke-opacity="1" stroke-miterlimit="10"/><path stroke-linecap="butt" transform="matrix(0.389158, 0, 0, 0.389074, 22.135002, -25.579304)" fill-opacity="1" fill="#e5e1d3" fill-rule="nonzero" stroke-linejoin="miter" d="M 1841.821073 542.246382 C 1805.625144 562.386362 1769.860837 583.219092 1734.22702 604.28274 C 1716.379998 614.754325 1698.683541 625.456827 1680.896746 636.05893 L 1627.807377 668.226674 L 1574.948875 700.765893 C 1557.413022 711.749511 1539.786829 722.602611 1522.331278 733.706708 C 1487.319797 755.794422 1452.46892 778.123094 1418.029589 801.134476 C 1454.215479 781.004536 1489.999862 760.171806 1525.623642 739.108158 C 1543.470663 728.636573 1561.16712 717.924032 1578.943878 707.321929 L 1632.023209 675.144144 L 1684.881711 642.594885 C 1702.417564 631.621307 1720.043756 620.758167 1737.499308 609.654071 C 1772.520826 587.576396 1807.381741 565.257765 1841.821073 542.246382 Z M 1841.821073 542.246382 " stroke="#000000" stroke-width="1" stroke-opacity="1" stroke-miterlimit="10"/><path stroke-linecap="butt" transform="matrix(0.389158, 0, 0, 0.389074, 22.135002, -25.579304)" fill-opacity="1" fill="#e5e1d3" fill-rule="nonzero" stroke-linejoin="miter" d="M 1843.336765 587.877592 C 1807.150874 608.017572 1771.376529 628.850303 1735.752749 649.913951 C 1717.89569 660.375495 1700.199233 671.088037 1682.422476 681.69014 L 1629.333107 713.857884 L 1576.474605 746.397104 C 1558.928714 757.380722 1541.312559 768.233821 1523.84697 779.337918 C 1488.835489 801.415593 1453.99465 823.754304 1419.54528 846.755647 C 1455.741209 826.625707 1491.515554 805.803016 1527.139333 784.739368 C 1544.986355 774.267783 1562.692849 763.545202 1580.459569 752.953139 L 1633.538901 720.765315 L 1686.397403 688.216056 C 1703.943294 677.252517 1721.559448 666.389378 1739.015 655.275241 C 1774.036518 633.207606 1808.897433 610.888975 1843.336765 587.877592 Z M 1843.336765 587.877592 " stroke="#000000" stroke-width="1" stroke-opacity="1" stroke-miterlimit="10"/><path stroke-linecap="butt" transform="matrix(0.389158, 0, 0, 0.389074, 22.135002, -25.579304)" fill-opacity="1" fill="#e5e1d3" fill-rule="nonzero" stroke-linejoin="miter" d="M 1841.128472 635.165381 C 1804.942581 655.305361 1769.168236 676.138092 1733.544456 697.201739 C 1715.687397 707.673324 1697.990941 718.375826 1680.214183 728.977929 L 1627.124814 761.145673 L 1574.256274 793.694932 C 1556.720421 804.668511 1539.104266 815.52161 1521.638677 826.625707 C 1486.627196 848.713421 1451.776319 871.042093 1417.336988 894.053475 C 1453.532916 873.923536 1489.307261 853.090805 1524.931041 832.027157 C 1542.778062 821.555572 1560.484556 810.843031 1578.251277 800.240928 L 1631.330608 768.063144 L 1684.18911 735.513884 C 1701.735001 724.540306 1719.351156 713.677166 1736.806707 702.57307 C 1771.828225 680.485355 1806.68914 658.166724 1841.128472 635.165381 Z M 1841.128472 635.165381 " stroke="#000000" stroke-width="1" stroke-opacity="1" stroke-miterlimit="10"/><path stroke-linecap="butt" transform="matrix(0.389158, 0, 0, 0.389074, 22.135002, -25.579304)" fill-opacity="1" fill="#e5e1d3" fill-rule="nonzero" stroke-linejoin="miter" d="M 1313.948729 803.785002 C 1221.812726 777.480542 1129.285253 752.742302 1036.637328 728.536174 C 990.353517 716.287533 943.919139 704.611164 897.544988 692.663718 L 758.241857 657.66473 L 618.717896 623.509092 L 548.865576 606.782668 L 513.944435 598.429496 L 478.973106 590.247002 C 385.742994 568.360084 292.372355 547.02536 198.620284 527.256856 C 290.746249 553.581395 383.273721 578.329676 475.931684 602.525763 L 510.672147 611.631925 L 545.45276 620.55737 L 615.024024 638.398219 L 754.327156 673.377127 L 893.851117 707.512686 C 940.426021 718.606743 986.9407 729.971876 1033.585869 740.764736 C 1126.826018 762.651654 1220.196657 783.986378 1313.948729 803.785002 Z M 1313.948729 803.785002 " stroke="#000000" stroke-width="1" stroke-opacity="1" stroke-miterlimit="10"/><path stroke-linecap="butt" transform="matrix(0.389158, 0, 0, 0.389074, 22.135002, -25.579304)" fill-opacity="1" fill="#e5e1d3" fill-rule="nonzero" stroke-linejoin="miter" d="M 1313.627523 846.52473 C 1221.49152 820.22027 1128.974085 795.482029 1036.316122 771.275902 C 990.03231 759.02726 943.597933 747.350891 897.23382 735.403446 L 757.92065 700.404458 L 618.39669 666.248819 L 548.554408 649.522396 L 513.623229 641.169224 L 478.651899 632.986729 C 385.421788 611.099812 292.051149 589.765088 198.299077 569.996583 C 290.425042 596.321123 382.952515 621.069403 475.610478 645.265491 L 510.35094 654.371653 L 545.131554 663.297098 L 614.702818 681.137947 L 754.005949 716.116855 L 893.52991 750.252414 C 940.114853 761.34647 986.619494 772.711604 1033.2747 783.504464 C 1126.51485 805.391381 1219.875451 826.726105 1313.627523 846.52473 Z M 1313.627523 846.52473 " stroke="#000000" stroke-width="1" stroke-opacity="1" stroke-miterlimit="10"/><path stroke-linecap="butt" transform="matrix(0.389158, 0, 0, 0.389074, 22.135002, -25.579304)" fill-opacity="1" fill="#e5e1d3" fill-rule="nonzero" stroke-linejoin="miter" d="M 1313.276203 893.902877 C 1221.140201 867.598417 1128.622766 842.860177 1035.97484 818.66409 C 989.680991 806.405408 943.246614 794.729039 896.8825 782.781593 L 757.569331 747.782606 L 618.04537 713.626967 L 548.203088 696.900543 L 513.27191 688.547371 L 478.30058 680.374917 C 385.070469 658.47796 291.69983 637.153275 197.947758 617.384771 C 290.083761 643.699271 382.601196 668.447551 475.259159 692.653678 L 509.999621 701.749801 L 544.780234 710.675245 L 614.351499 728.516095 L 753.664668 763.505043 L 893.178591 797.630562 C 939.763534 808.734658 986.268175 820.089751 1032.923381 830.882612 C 1126.16353 852.779569 1219.534169 874.124333 1313.276203 893.902877 Z M 1313.276203 893.902877 " stroke="#000000" stroke-width="1" stroke-opacity="1" stroke-miterlimit="10"/><path stroke-linecap="butt" transform="matrix(0.389158, 0, 0, 0.389074, 22.135002, -25.579304)" fill-opacity="1" fill="#f04d6e" fill-rule="nonzero" stroke-linejoin="miter" d="M 448.418362 594.905501 L 361.913506 572.416192 C 361.913506 572.416192 348.533259 622.033231 360.307475 662.082273 L 393.733 634.45255 L 424.548723 676.25857 C 424.558761 676.25857 425.30155 611.933121 448.418362 594.905501 Z M 448.418362 594.905501 " stroke="#000000" stroke-width="1" stroke-opacity="1" stroke-miterlimit="10"/><path stroke-linecap="butt" transform="matrix(0.389158, 0, 0, 0.389074, 22.135002, -25.579304)" fill-opacity="1" fill="#f04d6e" fill-rule="nonzero" stroke-linejoin="miter" d="M 994.25818 771.536939 L 907.341779 751.226281 C 907.341779 751.226281 893.981607 799.999971 905.755823 840.049013 L 939.181347 812.41929 L 969.997071 854.22531 C 969.997071 854.22531 971.131331 788.554519 994.25818 771.536939 Z M 994.25818 771.536939 " stroke="#000000" stroke-width="1" stroke-opacity="1" stroke-miterlimit="10"/><g mask="url(#af1c016fe4)"><g transform="matrix(1, 0, 0, 1, 699, 248)"><g clip-path="url(#75a53067a1)"><path fill="#010101" d="M 49.207031 2.546875 L 63.796875 9.945312 L 3.027344 31.742188 Z M 49.207031 2.546875 " fill-opacity="1" fill-rule="nonzero"/><g clip-path="url(#b455f2ce6d)"><path stroke-linecap="butt" transform="matrix(0.389158, 0, 0, 0.389074, -676.86499, -273.579316)" fill="none" stroke-linejoin="miter" d="M 1865.750915 709.701408 L 1903.241706 728.716922 L 1747.085285 784.739398 Z M 1865.750915 709.701408 " stroke="#000000" stroke-width="1" stroke-opacity="1" stroke-miterlimit="10"/></g></g></g></g></svg>