<svg xmlns="http://www.w3.org/2000/svg" xmlns:xlink="http://www.w3.org/1999/xlink" width="1080" zoomAndPan="magnify" viewBox="0 0 810 809.999993" height="1080" preserveAspectRatio="xMidYMid meet" version="1.0"><defs><clipPath id="bb9cc1c8d7"><path d="M 28.074219 39.226562 L 781.824219 39.226562 L 781.824219 729.226562 L 28.074219 729.226562 Z M 28.074219 39.226562 " clip-rule="nonzero"/></clipPath></defs><g clip-path="url(#bb9cc1c8d7)"><path fill="#000000" d="M 519.320312 39.15625 L 696.6875 39.15625 C 720.113281 39.15625 741.382812 48.703125 756.785156 64.148438 C 772.191406 79.5625 781.765625 100.875 781.765625 124.277344 L 781.765625 354.5 C 781.765625 377.9375 772.226562 399.214844 756.785156 414.628906 C 741.382812 430.039062 720.078125 439.621094 696.6875 439.621094 L 519.320312 439.621094 C 495.894531 439.621094 474.625 430.039062 459.21875 414.628906 C 443.816406 399.214844 434.242188 377.9375 434.242188 354.5 L 434.242188 124.277344 C 434.242188 100.839844 443.816406 79.5625 459.21875 64.148438 C 474.625 48.738281 495.894531 39.15625 519.320312 39.15625 Z M 113.320312 234.917969 L 290.6875 234.917969 C 304.359375 234.917969 316.796875 229.296875 325.808594 220.28125 C 334.816406 211.234375 340.433594 198.828125 340.433594 185.144531 L 340.433594 124.277344 C 340.433594 110.597656 334.816406 98.152344 325.808594 89.140625 C 316.761719 80.089844 304.324219 74.507812 290.6875 74.507812 L 113.320312 74.507812 C 99.648438 74.507812 87.210938 80.125 78.199219 89.140625 C 69.15625 98.191406 63.574219 110.597656 63.574219 124.277344 L 63.574219 185.144531 C 63.574219 198.828125 69.191406 211.269531 78.199219 220.28125 C 87.210938 229.296875 99.648438 234.917969 113.320312 234.917969 Z M 290.6875 270.265625 L 113.320312 270.265625 C 89.894531 270.265625 68.625 260.6875 53.222656 245.273438 C 37.816406 229.863281 28.242188 208.546875 28.242188 185.144531 L 28.242188 124.277344 C 28.242188 100.839844 37.78125 79.5625 53.222656 64.148438 C 68.625 48.738281 89.929688 39.15625 113.320312 39.15625 L 290.6875 39.15625 C 314.113281 39.15625 335.382812 48.738281 350.785156 64.148438 C 366.191406 79.5625 375.765625 100.875 375.765625 124.277344 L 375.765625 185.144531 C 375.765625 208.582031 366.191406 229.863281 350.785156 245.273438 C 335.382812 260.6875 314.078125 270.265625 290.6875 270.265625 Z M 113.320312 693.738281 L 290.6875 693.738281 C 304.359375 693.738281 316.796875 688.117188 325.808594 679.105469 C 334.851562 670.089844 340.433594 657.648438 340.433594 643.96875 L 340.433594 413.746094 C 340.433594 400.066406 334.851562 387.621094 325.808594 378.609375 C 316.761719 369.558594 304.359375 363.972656 290.6875 363.972656 L 113.320312 363.972656 C 99.648438 363.972656 87.210938 369.59375 78.199219 378.609375 C 69.15625 387.65625 63.574219 400.066406 63.574219 413.746094 L 63.574219 643.96875 C 63.574219 657.648438 69.191406 670.089844 78.199219 679.105469 C 87.210938 688.152344 99.648438 693.738281 113.320312 693.738281 Z M 290.6875 729.085938 L 113.320312 729.085938 C 89.894531 729.085938 68.625 719.507812 53.222656 704.097656 C 37.816406 688.683594 28.242188 667.367188 28.242188 643.96875 L 28.242188 413.746094 C 28.242188 390.308594 37.78125 369.027344 53.222656 353.617188 C 68.625 338.203125 89.929688 328.625 113.320312 328.625 L 290.6875 328.625 C 314.113281 328.625 335.382812 338.203125 350.785156 353.617188 C 366.191406 369.027344 375.765625 390.308594 375.765625 413.746094 L 375.765625 643.96875 C 375.765625 667.402344 366.191406 688.683594 350.785156 704.097656 C 335.382812 719.507812 314.113281 729.085938 290.6875 729.085938 Z M 519.355469 497.980469 L 696.722656 497.980469 C 720.148438 497.980469 741.417969 507.558594 756.820312 522.972656 C 772.226562 538.382812 781.800781 559.699219 781.800781 583.097656 L 781.800781 643.96875 C 781.800781 667.402344 772.226562 688.683594 756.820312 704.097656 C 741.417969 719.507812 720.113281 729.085938 696.722656 729.085938 L 519.355469 729.085938 C 495.929688 729.085938 474.660156 719.507812 459.253906 704.097656 C 443.851562 688.648438 434.277344 667.367188 434.277344 643.96875 L 434.277344 583.097656 C 434.277344 559.664062 443.851562 538.382812 459.253906 522.972656 C 474.660156 507.558594 495.929688 497.980469 519.355469 497.980469 Z M 696.722656 533.328125 L 519.355469 533.328125 C 505.683594 533.328125 493.246094 538.949219 484.234375 547.960938 C 475.191406 557.011719 469.609375 569.417969 469.609375 583.097656 L 469.609375 643.96875 C 469.609375 657.648438 475.226562 670.089844 484.234375 679.105469 C 493.28125 688.152344 505.683594 693.738281 519.355469 693.738281 L 696.722656 693.738281 C 710.394531 693.738281 722.832031 688.117188 731.84375 679.105469 C 740.886719 670.054688 746.46875 657.648438 746.46875 643.96875 L 746.46875 583.097656 C 746.46875 569.417969 740.851562 556.976562 731.84375 547.960938 C 722.796875 538.949219 710.394531 533.328125 696.722656 533.328125 Z M 696.722656 74.507812 L 519.355469 74.507812 C 505.683594 74.507812 493.246094 80.125 484.234375 89.140625 C 475.191406 98.152344 469.609375 110.597656 469.609375 124.277344 L 469.609375 354.5 C 469.609375 368.179688 475.226562 380.621094 484.234375 389.636719 C 493.28125 398.6875 505.683594 404.269531 519.355469 404.269531 L 696.722656 404.269531 C 710.394531 404.269531 722.832031 398.652344 731.84375 389.636719 C 740.886719 380.585938 746.46875 368.179688 746.46875 354.5 L 746.46875 124.277344 C 746.46875 110.597656 740.851562 98.152344 731.84375 89.140625 C 722.796875 80.089844 710.394531 74.507812 696.722656 74.507812 Z M 696.722656 74.507812 " fill-opacity="1" fill-rule="nonzero"/></g></svg>