<svg xmlns="http://www.w3.org/2000/svg" xmlns:xlink="http://www.w3.org/1999/xlink" width="1080" zoomAndPan="magnify" viewBox="0 0 810 809.999993" height="1080" preserveAspectRatio="xMidYMid meet" version="1.0"><defs><clipPath id="337b9d61f5"><path d="M 25.960938 27 L 794.710938 27 L 794.710938 560 L 25.960938 560 Z M 25.960938 27 " clip-rule="nonzero"/></clipPath></defs><g clip-path="url(#337b9d61f5)"><path fill="#000000" d="M 54.421875 558.175781 C 47.242188 556.089844 36.089844 545.582031 30.675781 535.800781 L 25.960938 527.285156 L 25.960938 317.339844 C 25.960938 125.664062 26.199219 106.5625 28.628906 97.851562 C 30.09375 92.601562 33.144531 80.792969 35.398438 71.609375 C 40.175781 52.191406 44.785156 44.535156 56.230469 36.976562 C 72.332031 26.347656 46.328125 27.074219 409.875 27.074219 C 773.46875 27.074219 747.371094 26.339844 763.589844 36.992188 C 767.957031 39.863281 773.683594 45.425781 776.304688 49.355469 C 780.949219 56.304688 782.125 60.148438 790.589844 95.777344 L 794.636719 112.789062 L 794.214844 320.035156 C 793.792969 522.363281 793.734375 527.4375 790.671875 533.644531 C 786.050781 543.0625 772.40625 556.097656 765.027344 558.148438 C 757.226562 560.3125 61.882812 560.339844 54.421875 558.148438 Z M 725.851562 522.910156 C 725.492188 521.816406 680.546875 483.90625 625.960938 438.664062 C 571.382812 393.421875 525.46875 354.871094 523.941406 353 C 520.316406 348.566406 520.339844 337.523438 523.941406 333.035156 C 529.328125 326.375 538.421875 324.171875 545.308594 327.859375 C 548.367188 329.496094 747.476562 493.730469 756.398438 501.972656 L 760.375 505.648438 L 759.957031 306.945312 C 759.65625 176.238281 758.972656 106.773438 757.902344 103.953125 L 756.273438 99.671875 L 746.40625 109.320312 C 740.980469 114.628906 673.027344 170.554688 595.40625 233.605469 C 517.78125 296.652344 449.253906 352.730469 443.128906 358.21875 C 425.246094 374.238281 420.375 376.984375 409.851562 376.984375 C 399.261719 376.984375 394.117188 374.050781 375.960938 357.667969 C 369.679688 352 301.234375 295.960938 223.855469 233.140625 C 146.476562 170.320312 78.726562 114.585938 73.300781 109.292969 L 63.433594 99.671875 L 61.804688 103.953125 C 60.730469 106.773438 60.027344 176.214844 59.742188 306.878906 L 59.324219 505.519531 L 67.273438 498.761719 C 85.5625 483.214844 262.742188 336.644531 269.359375 331.59375 C 273.847656 328.164062 278.347656 326.085938 281.292969 326.085938 C 287.179688 326.085938 294.773438 329.90625 296.941406 333.953125 C 299.015625 337.835938 299.058594 347.667969 297.007812 351.496094 C 296.148438 353.105469 250.003906 392.097656 194.476562 438.144531 C 138.9375 484.1875 93.503906 522.542969 93.503906 523.378906 C 93.503906 524.339844 209.933594 524.898438 409.988281 524.898438 C 662.460938 524.898438 726.34375 524.496094 725.832031 522.910156 Z M 413.21875 337.824219 C 417.699219 332.417969 733.09375 76.949219 740.597656 72.648438 C 748.644531 68.03125 750.472656 64.757812 745.976562 63.03125 C 744.585938 62.5 593.019531 62.066406 409.144531 62.066406 C 100.792969 62.066406 74.671875 62.269531 72.664062 64.683594 C 70.796875 66.933594 70.914062 67.542969 73.5 69.054688 C 75.152344 70.023438 79.792969 72.976562 83.820312 75.625 C 92.269531 81.183594 403.214844 333.785156 406.496094 337.757812 C 409.222656 341.0625 410.515625 341.078125 413.21875 337.824219 Z M 413.21875 337.824219 " fill-opacity="1" fill-rule="nonzero"/></g></svg>