<svg xmlns="http://www.w3.org/2000/svg" xmlns:xlink="http://www.w3.org/1999/xlink" width="1080" zoomAndPan="magnify" viewBox="0 0 810 809.999993" height="1080" preserveAspectRatio="xMidYMid meet" version="1.0"><defs><clipPath id="9db70ab97f"><path d="M 32 81 L 757 81 L 757 749.25 L 32 749.25 Z M 32 81 " clip-rule="nonzero"/></clipPath></defs><g clip-path="url(#9db70ab97f)"><path fill="#000000" d="M 32.816406 192.421875 L 32.816406 638.550781 C 32.816406 699.800781 82.601562 749.613281 143.820312 749.613281 L 645.375 749.613281 C 706.59375 749.613281 756.378906 699.800781 756.378906 638.550781 L 756.378906 276.261719 C 756.378906 260.839844 743.933594 248.386719 728.519531 248.386719 L 728.519531 217.546875 C 728.519531 173.09375 692.410156 136.964844 647.980469 136.964844 L 383.488281 136.964844 C 363.664062 102.574219 327.625 81.289062 287.535156 81.289062 L 143.820312 81.289062 C 82.601562 81.363281 32.816406 131.171875 32.816406 192.421875 Z M 648.050781 192.710938 C 661.726562 192.710938 672.945312 203.863281 672.945312 217.617188 L 672.945312 248.460938 L 473.871094 248.460938 C 452.742188 248.460938 433.78125 236.730469 424.375 217.835938 L 411.855469 192.785156 L 648.050781 192.785156 Z M 88.464844 192.421875 C 88.464844 161.871094 113.285156 137.039062 143.820312 137.039062 L 287.535156 137.039062 C 308.667969 137.039062 327.625 148.765625 337.03125 167.664062 L 374.515625 242.742188 C 393.476562 280.605469 431.46875 304.136719 473.800781 304.136719 L 700.730469 304.136719 L 700.730469 638.625 C 700.730469 669.175781 675.910156 694.007812 645.375 694.007812 L 143.820312 694.007812 C 113.285156 694.007812 88.464844 669.175781 88.464844 638.625 Z M 88.464844 192.421875 " fill-opacity="1" fill-rule="nonzero"/></g></svg>