<svg xmlns="http://www.w3.org/2000/svg" xmlns:xlink="http://www.w3.org/1999/xlink" width="1080" zoomAndPan="magnify" viewBox="0 0 810 809.999993" height="1080" preserveAspectRatio="xMidYMid meet" version="1.0"><defs><clipPath id="3ec1bcf6f5"><path d="M 28.796875 76 L 748 76 L 748 695 L 28.796875 695 Z M 28.796875 76 " clip-rule="nonzero"/></clipPath></defs><path fill="#040606" d="M 558.941406 470.070312 C 565.644531 473.898438 574.199219 471.601562 578.027344 464.898438 C 581.859375 458.195312 579.558594 449.707031 572.921875 445.875 L 451.445312 375.722656 L 451.445312 221.566406 C 451.445312 213.84375 445.1875 207.585938 437.464844 207.585938 C 429.742188 207.585938 423.484375 213.84375 423.484375 221.566406 L 423.484375 391.875 L 558.941406 470.070312 " fill-opacity="1" fill-rule="nonzero"/><g clip-path="url(#3ec1bcf6f5)"><path fill="#040606" d="M 282.027344 385.683594 L 188.128906 385.683594 C 188.128906 247.035156 300.539062 134.625 439.1875 134.625 C 577.835938 134.625 690.25 247.035156 690.25 385.683594 C 690.25 524.328125 577.835938 636.738281 439.1875 636.738281 C 411.421875 636.738281 383.84375 632.140625 357.542969 623.078125 C 342.542969 617.90625 326.136719 625.886719 320.964844 640.949219 C 315.796875 655.949219 323.839844 672.355469 338.839844 677.527344 C 500.023438 732.933594 675.628906 647.207031 731.039062 486.027344 C 786.445312 324.847656 700.78125 149.308594 539.597656 93.835938 C 378.417969 38.429688 202.808594 124.15625 147.402344 285.335938 C 136.292969 317.636719 130.613281 351.53125 130.613281 385.683594 L 36.710938 385.683594 C 32.308594 385.683594 28.796875 389.191406 28.796875 393.597656 C 28.796875 395.574219 29.5625 397.492188 30.902344 398.960938 L 153.59375 531.347656 C 156.53125 534.539062 161.574219 534.730469 164.765625 531.730469 C 164.890625 531.605469 165.019531 531.476562 165.148438 531.347656 L 287.835938 398.960938 C 290.835938 395.765625 290.644531 390.722656 287.453125 387.789062 C 285.984375 386.449219 284.070312 385.683594 282.027344 385.683594 " fill-opacity="1" fill-rule="nonzero"/></g></svg>