<svg xmlns="http://www.w3.org/2000/svg" xmlns:xlink="http://www.w3.org/1999/xlink" width="1080" zoomAndPan="magnify" viewBox="0 0 810 809.999993" height="1080" preserveAspectRatio="xMidYMid meet" version="1.0"><defs><clipPath id="191692a287"><path d="M 62 18.867188 L 738 18.867188 L 738 764 L 62 764 Z M 62 18.867188 " clip-rule="nonzero"/></clipPath></defs><g clip-path="url(#191692a287)"><path fill="#000000" d="M 737.433594 425.5625 C 737.445312 430.636719 737.34375 435.710938 737.128906 440.78125 C 736.910156 445.851562 736.582031 450.914062 736.136719 455.972656 C 735.691406 461.027344 735.132812 466.070312 734.460938 471.101562 C 733.789062 476.128906 733.003906 481.144531 732.105469 486.136719 C 731.207031 491.132812 730.199219 496.105469 729.074219 501.054688 C 727.953125 506.003906 726.71875 510.925781 725.375 515.820312 C 724.03125 520.714844 722.578125 525.574219 721.015625 530.402344 C 719.453125 535.230469 717.78125 540.019531 716 544.773438 C 714.222656 549.527344 712.335938 554.238281 710.347656 558.90625 C 708.355469 563.570312 706.257812 568.191406 704.058594 572.765625 C 701.859375 577.339844 699.558594 581.859375 697.152344 586.328125 C 694.75 590.796875 692.246094 595.210938 689.644531 599.566406 C 687.042969 603.921875 684.34375 608.21875 681.546875 612.453125 C 678.75 616.6875 675.859375 620.855469 672.875 624.960938 C 669.890625 629.066406 666.816406 633.101562 663.652344 637.066406 C 660.484375 641.03125 657.230469 644.921875 653.890625 648.742188 C 650.546875 652.558594 647.121094 656.300781 643.613281 659.964844 C 640.101562 663.628906 636.511719 667.210938 632.839844 670.710938 C 629.167969 674.214844 625.417969 677.632812 621.59375 680.964844 C 617.769531 684.296875 613.871094 687.542969 609.898438 690.699219 C 605.925781 693.855469 601.882812 696.921875 597.773438 699.894531 C 593.664062 702.867188 589.488281 705.75 585.25 708.535156 C 581.007812 711.320312 576.707031 714.007812 572.347656 716.601562 C 567.984375 719.191406 563.570312 721.683594 559.09375 724.078125 C 554.621094 726.46875 550.097656 728.761719 545.519531 730.949219 C 540.941406 733.136719 536.320312 735.222656 531.648438 737.199219 C 526.976562 739.179688 522.265625 741.054688 517.507812 742.820312 C 512.753906 744.585938 507.960938 746.246094 503.132812 747.796875 C 498.300781 749.347656 493.4375 750.789062 488.542969 752.121094 C 483.648438 753.449219 478.726562 754.671875 473.777344 755.78125 C 468.828125 756.890625 463.855469 757.886719 458.859375 758.769531 C 453.863281 759.65625 448.851562 760.425781 443.824219 761.085938 C 438.792969 761.742188 433.75 762.289062 428.695312 762.71875 C 423.644531 763.148438 418.582031 763.464844 413.511719 763.667969 C 408.445312 763.871094 403.375 763.960938 398.300781 763.933594 C 393.230469 763.90625 388.160156 763.765625 383.09375 763.511719 C 378.027344 763.257812 372.96875 762.886719 367.921875 762.402344 C 362.871094 761.921875 357.835938 761.324219 352.8125 760.613281 C 347.789062 759.902344 342.785156 759.078125 337.800781 758.140625 C 332.8125 757.207031 327.851562 756.15625 322.914062 754.996094 C 317.976562 753.835938 313.066406 752.566406 308.1875 751.183594 C 303.304688 749.800781 298.457031 748.3125 293.644531 746.710938 C 288.832031 745.109375 284.054688 743.402344 279.320312 741.585938 C 274.582031 739.769531 269.886719 737.847656 265.238281 735.820312 C 260.589844 733.792969 255.988281 731.660156 251.433594 729.421875 C 246.878906 727.1875 242.378906 724.851562 237.929688 722.410156 C 233.480469 719.972656 229.089844 717.433594 224.753906 714.796875 C 220.421875 712.160156 216.148438 709.429688 211.9375 706.597656 C 207.726562 703.769531 203.582031 700.84375 199.503906 697.828125 C 195.421875 694.8125 191.414062 691.703125 187.476562 688.507812 C 183.535156 685.308594 179.671875 682.023438 175.878906 678.652344 C 172.089844 675.28125 168.375 671.824219 164.742188 668.285156 C 161.105469 664.746094 157.550781 661.125 154.082031 657.425781 C 150.609375 653.726562 147.222656 649.949219 143.917969 646.097656 C 140.617188 642.242188 137.40625 638.316406 134.28125 634.320312 C 131.15625 630.320312 128.121094 626.253906 125.179688 622.121094 C 122.238281 617.984375 119.394531 613.785156 116.640625 609.523438 C 113.886719 605.261719 111.234375 600.9375 108.675781 596.554688 C 106.121094 592.171875 103.660156 587.734375 101.304688 583.238281 C 98.949219 578.746094 96.691406 574.199219 94.539062 569.605469 C 92.386719 565.007812 90.339844 560.367188 88.398438 555.679688 C 86.453125 550.992188 84.617188 546.261719 82.886719 541.488281 C 81.160156 536.71875 79.539062 531.910156 78.023438 527.066406 C 76.511719 522.222656 75.109375 517.347656 73.816406 512.441406 C 72.523438 507.53125 71.339844 502.597656 70.269531 497.636719 C 69.199219 492.675781 68.238281 487.695312 67.394531 482.691406 C 66.546875 477.6875 65.8125 472.667969 65.195312 467.628906 C 64.574219 462.59375 64.070312 457.542969 63.675781 452.484375 C 63.285156 447.421875 63.007812 442.355469 62.84375 437.285156 C 62.679688 432.210938 62.628906 427.136719 62.695312 422.0625 C 62.757812 416.988281 62.9375 411.917969 63.230469 406.851562 C 63.523438 401.785156 63.933594 396.726562 64.453125 391.679688 C 64.976562 386.632812 65.609375 381.597656 66.359375 376.578125 C 67.105469 371.558594 67.96875 366.558594 68.941406 361.578125 C 69.914062 356.597656 71 351.640625 72.199219 346.707031 C 73.394531 341.777344 74.703125 336.875 76.121094 332 C 77.539062 327.128906 79.066406 322.289062 80.703125 317.484375 C 82.339844 312.683594 84.082031 307.917969 85.933594 303.191406 C 87.785156 298.46875 89.742188 293.785156 91.804688 289.148438 C 93.867188 284.511719 96.03125 279.925781 98.300781 275.386719 C 100.570312 270.847656 102.941406 266.359375 105.410156 261.929688 C 107.882812 257.496094 110.453125 253.121094 113.121094 248.804688 C 115.789062 244.492188 118.554688 240.238281 121.414062 236.046875 C 124.273438 231.855469 127.226562 227.730469 130.273438 223.671875 C 133.320312 219.613281 136.457031 215.625 139.683594 211.707031 C 142.90625 207.792969 146.21875 203.949219 149.621094 200.183594 C 153.019531 196.414062 156.5 192.726562 160.066406 189.117188 C 163.632812 185.507812 167.277344 181.980469 171 178.535156 C 174.726562 175.089844 178.523438 171.730469 182.402344 168.453125 C 186.277344 165.179688 190.226562 161.996094 194.246094 158.898438 C 198.265625 155.804688 202.351562 152.800781 206.507812 149.890625 C 210.660156 146.976562 214.878906 144.160156 219.160156 141.441406 C 223.441406 138.71875 227.785156 136.097656 232.183594 133.570312 C 236.585938 131.046875 241.039062 128.621094 245.546875 126.296875 C 250.058594 123.972656 254.617188 121.75 259.226562 119.632812 C 263.835938 117.515625 268.492188 115.5 273.191406 113.59375 C 274.203125 113.253906 275.226562 112.960938 276.265625 112.71875 C 277.300781 112.476562 278.351562 112.285156 279.40625 112.140625 C 280.460938 111.996094 281.523438 111.902344 282.589844 111.859375 C 283.652344 111.816406 284.71875 111.824219 285.78125 111.878906 C 286.847656 111.9375 287.90625 112.042969 288.960938 112.199219 C 290.015625 112.359375 291.0625 112.5625 292.09375 112.820312 C 293.128906 113.074219 294.152344 113.378906 295.15625 113.730469 C 296.164062 114.085938 297.152344 114.484375 298.121094 114.929688 C 299.089844 115.375 300.035156 115.863281 300.957031 116.398438 C 301.878906 116.933594 302.773438 117.511719 303.640625 118.128906 C 304.507812 118.75 305.347656 119.410156 306.152344 120.105469 C 306.957031 120.804688 307.730469 121.539062 308.464844 122.3125 C 309.203125 123.082031 309.898438 123.886719 310.5625 124.722656 C 311.222656 125.5625 311.839844 126.429688 312.417969 127.324219 C 313 128.21875 313.535156 129.140625 314.027344 130.085938 C 314.515625 131.035156 314.964844 132 315.363281 132.988281 C 315.765625 133.976562 316.117188 134.984375 316.421875 136.003906 C 316.730469 137.027344 316.984375 138.058594 317.195312 139.105469 C 317.402344 140.152344 317.558594 141.207031 317.667969 142.265625 C 317.777344 143.328125 317.835938 144.390625 317.84375 145.457031 C 317.851562 146.523438 317.8125 147.589844 317.71875 148.652344 C 317.625 149.714844 317.484375 150.769531 317.292969 151.820312 C 317.101562 152.871094 316.859375 153.90625 316.570312 154.933594 C 316.28125 155.960938 315.941406 156.972656 315.558594 157.964844 C 315.171875 158.960938 314.742188 159.933594 314.265625 160.886719 C 313.789062 161.84375 313.265625 162.769531 312.703125 163.675781 C 312.136719 164.582031 311.53125 165.457031 310.882812 166.304688 C 310.238281 167.152344 309.550781 167.964844 308.828125 168.75 C 308.101562 169.53125 307.34375 170.277344 306.546875 170.988281 C 305.753906 171.699219 304.925781 172.371094 304.066406 173.003906 C 303.210938 173.636719 302.324219 174.230469 301.410156 174.777344 C 300.496094 175.328125 299.558594 175.832031 298.597656 176.292969 C 293.816406 178.238281 289.097656 180.320312 284.4375 182.535156 C 279.777344 184.753906 275.183594 187.101562 270.65625 189.582031 C 266.132812 192.0625 261.679688 194.671875 257.304688 197.410156 C 252.929688 200.144531 248.636719 203.003906 244.421875 205.988281 C 240.210938 208.972656 236.089844 212.074219 232.054688 215.292969 C 228.019531 218.515625 224.082031 221.847656 220.242188 225.292969 C 216.398438 228.738281 212.65625 232.292969 209.019531 235.953125 C 205.378906 239.617188 201.847656 243.378906 198.425781 247.242188 C 195.003906 251.105469 191.695312 255.066406 188.5 259.117188 C 185.304688 263.171875 182.226562 267.316406 179.269531 271.546875 C 176.3125 275.777344 173.476562 280.089844 170.765625 284.484375 C 168.058594 288.875 165.476562 293.34375 163.019531 297.886719 C 160.566406 302.425781 158.246094 307.035156 156.054688 311.710938 C 153.867188 316.386719 151.8125 321.121094 149.894531 325.914062 C 147.976562 330.707031 146.199219 335.550781 144.558594 340.449219 C 142.917969 345.34375 141.421875 350.28125 140.0625 355.261719 C 138.707031 360.246094 137.496094 365.261719 136.425781 370.3125 C 135.359375 375.363281 134.433594 380.441406 133.65625 385.542969 C 132.878906 390.648438 132.25 395.769531 131.765625 400.910156 C 131.285156 406.050781 130.949219 411.203125 130.761719 416.359375 C 130.574219 421.519531 130.535156 426.679688 130.640625 431.84375 C 130.75 437.003906 131.007812 442.160156 131.410156 447.308594 C 131.816406 452.453125 132.367188 457.585938 133.066406 462.703125 C 133.765625 467.816406 134.609375 472.90625 135.597656 477.976562 C 136.589844 483.042969 137.726562 488.078125 139.003906 493.078125 C 140.285156 498.078125 141.707031 503.039062 143.273438 507.960938 C 144.835938 512.878906 146.539062 517.75 148.382812 522.574219 C 150.226562 527.394531 152.210938 532.160156 154.328125 536.871094 C 156.445312 541.578125 158.695312 546.222656 161.078125 550.800781 C 163.460938 555.378906 165.976562 559.886719 168.617188 564.320312 C 171.261719 568.757812 174.027344 573.113281 176.921875 577.386719 C 179.8125 581.664062 182.828125 585.851562 185.960938 589.957031 C 189.09375 594.058594 192.339844 598.066406 195.703125 601.984375 C 199.066406 605.898438 202.539062 609.714844 206.121094 613.433594 C 209.703125 617.148438 213.386719 620.757812 217.175781 624.265625 C 220.964844 627.769531 224.851562 631.164062 228.835938 634.445312 C 232.820312 637.726562 236.894531 640.890625 241.0625 643.9375 C 245.226562 646.984375 249.476562 649.910156 253.808594 652.714844 C 258.140625 655.519531 262.550781 658.195312 267.039062 660.746094 C 271.527344 663.296875 276.082031 665.714844 280.707031 668.003906 C 285.335938 670.292969 290.023438 672.445312 294.773438 674.464844 C 299.519531 676.484375 304.324219 678.363281 309.183594 680.109375 C 314.039062 681.851562 318.941406 683.453125 323.890625 684.914062 C 328.839844 686.375 333.828125 687.695312 338.851562 688.871094 C 343.878906 690.042969 348.933594 691.074219 354.015625 691.960938 C 359.101562 692.84375 364.207031 693.582031 369.332031 694.171875 C 374.457031 694.765625 379.597656 695.207031 384.75 695.503906 C 389.902344 695.800781 395.058594 695.949219 400.21875 695.949219 C 405.378906 695.949219 410.535156 695.800781 415.6875 695.503906 C 420.839844 695.207031 425.976562 694.765625 431.105469 694.171875 C 436.230469 693.582031 441.335938 692.84375 446.417969 691.960938 C 451.503906 691.074219 456.558594 690.042969 461.582031 688.871094 C 466.609375 687.695312 471.59375 686.375 476.542969 684.914062 C 481.496094 683.453125 486.398438 681.851562 491.253906 680.109375 C 496.113281 678.363281 500.914062 676.484375 505.664062 674.464844 C 510.414062 672.445312 515.101562 670.292969 519.726562 668.003906 C 524.355469 665.714844 528.910156 663.296875 533.398438 660.746094 C 537.882812 658.195312 542.292969 655.519531 546.628906 652.714844 C 550.960938 649.910156 555.210938 646.984375 559.375 643.9375 C 563.542969 640.890625 567.617188 637.726562 571.601562 634.445312 C 575.585938 631.164062 579.46875 627.769531 583.257812 624.265625 C 587.050781 620.757812 590.734375 617.148438 594.316406 613.433594 C 597.898438 609.714844 601.371094 605.898438 604.734375 601.984375 C 608.097656 598.066406 611.34375 594.058594 614.476562 589.957031 C 617.609375 585.851562 620.625 581.664062 623.515625 577.386719 C 626.410156 573.113281 629.175781 568.757812 631.820312 564.320312 C 634.460938 559.886719 636.972656 555.378906 639.359375 550.800781 C 641.742188 546.222656 643.992188 541.578125 646.109375 536.871094 C 648.226562 532.160156 650.207031 527.394531 652.050781 522.574219 C 653.894531 517.75 655.601562 512.878906 657.164062 507.960938 C 658.730469 503.039062 660.152344 498.078125 661.429688 493.078125 C 662.710938 488.078125 663.847656 483.042969 664.835938 477.976562 C 665.828125 472.90625 666.671875 467.816406 667.371094 462.703125 C 668.070312 457.585938 668.621094 452.453125 669.027344 447.308594 C 669.429688 442.160156 669.6875 437.003906 669.796875 431.84375 C 669.902344 426.679688 669.863281 421.519531 669.675781 416.359375 C 669.488281 411.203125 669.152344 406.050781 668.667969 400.910156 C 668.1875 395.769531 667.554688 390.648438 666.777344 385.542969 C 666 380.441406 665.078125 375.363281 664.011719 370.3125 C 662.941406 365.261719 661.730469 360.246094 660.375 355.261719 C 659.015625 350.28125 657.519531 345.34375 655.878906 340.449219 C 654.238281 335.550781 652.460938 330.707031 650.542969 325.914062 C 648.625 321.121094 646.570312 316.386719 644.382812 311.710938 C 642.191406 307.035156 639.871094 302.425781 637.417969 297.886719 C 634.960938 293.34375 632.378906 288.875 629.667969 284.484375 C 626.960938 280.089844 624.125 275.777344 621.167969 271.546875 C 618.210938 267.316406 615.132812 263.171875 611.9375 259.117188 C 608.742188 255.066406 605.433594 251.105469 602.011719 247.242188 C 598.585938 243.378906 595.058594 239.617188 591.417969 235.953125 C 587.78125 232.292969 584.039062 228.738281 580.195312 225.292969 C 576.355469 221.847656 572.414062 218.515625 568.382812 215.292969 C 564.347656 212.074219 560.226562 208.972656 556.011719 205.988281 C 551.800781 203.003906 547.507812 200.144531 543.132812 197.410156 C 538.757812 194.671875 534.304688 192.0625 529.78125 189.582031 C 525.253906 187.101562 520.660156 184.753906 516 182.535156 C 511.339844 180.320312 506.621094 178.238281 501.839844 176.292969 C 500.746094 175.925781 499.675781 175.503906 498.625 175.027344 C 497.578125 174.550781 496.554688 174.023438 495.558594 173.441406 C 494.5625 172.859375 493.597656 172.230469 492.667969 171.550781 C 491.734375 170.871094 490.839844 170.144531 489.984375 169.375 C 489.125 168.605469 488.308594 167.792969 487.535156 166.9375 C 486.761719 166.082031 486.03125 165.191406 485.347656 164.261719 C 484.664062 163.335938 484.027344 162.375 483.445312 161.378906 C 482.859375 160.386719 482.324219 159.367188 481.84375 158.316406 C 481.359375 157.269531 480.933594 156.199219 480.5625 155.109375 C 480.191406 154.015625 479.875 152.910156 479.613281 151.785156 C 479.355469 150.664062 479.152344 149.527344 479.011719 148.382812 C 478.867188 147.238281 478.78125 146.089844 478.753906 144.9375 C 478.730469 143.785156 478.761719 142.632812 478.851562 141.484375 C 478.945312 140.332031 479.09375 139.191406 479.300781 138.058594 C 479.507812 136.921875 479.773438 135.800781 480.09375 134.695312 C 480.417969 133.585938 480.796875 132.5 481.226562 131.429688 C 481.660156 130.359375 482.148438 129.316406 482.6875 128.296875 C 483.226562 127.277344 483.816406 126.289062 484.457031 125.332031 C 485.097656 124.371094 485.785156 123.449219 486.519531 122.558594 C 487.253906 121.671875 488.035156 120.820312 488.855469 120.011719 C 489.675781 119.203125 490.535156 118.4375 491.4375 117.714844 C 492.335938 116.996094 493.269531 116.320312 494.238281 115.695312 C 495.207031 115.070312 496.203125 114.496094 497.230469 113.972656 C 498.257812 113.445312 499.308594 112.976562 500.382812 112.558594 C 501.457031 112.144531 502.550781 111.78125 503.664062 111.476562 C 504.777344 111.171875 505.898438 110.925781 507.035156 110.734375 C 508.175781 110.546875 509.316406 110.414062 510.46875 110.339844 C 511.617188 110.265625 512.769531 110.253906 513.921875 110.296875 C 515.074219 110.339844 516.21875 110.445312 517.363281 110.605469 C 518.503906 110.765625 519.632812 110.984375 520.753906 111.261719 C 521.871094 111.539062 522.972656 111.871094 524.058594 112.261719 C 525.144531 112.652344 526.207031 113.09375 527.246094 113.59375 C 531.105469 115.144531 534.933594 116.769531 538.730469 118.464844 C 542.527344 120.160156 546.292969 121.925781 550.023438 123.761719 C 553.757812 125.597656 557.453125 127.503906 561.113281 129.476562 C 564.777344 131.449219 568.398438 133.488281 571.984375 135.597656 C 575.570312 137.707031 579.117188 139.878906 582.621094 142.121094 C 586.125 144.359375 589.585938 146.664062 593.003906 149.03125 C 596.425781 151.402344 599.796875 153.832031 603.125 156.328125 C 606.457031 158.824219 609.738281 161.378906 612.96875 163.996094 C 616.203125 166.609375 619.386719 169.285156 622.519531 172.023438 C 625.65625 174.757812 628.738281 177.550781 631.765625 180.398438 C 634.796875 183.25 637.773438 186.152344 640.695312 189.113281 C 643.617188 192.074219 646.484375 195.089844 649.292969 198.15625 C 652.105469 201.222656 654.855469 204.34375 657.550781 207.511719 C 660.246094 210.683594 662.878906 213.902344 665.453125 217.167969 C 668.027344 220.4375 670.539062 223.75 672.992188 227.113281 C 675.441406 230.472656 677.832031 233.878906 680.15625 237.328125 C 682.480469 240.78125 684.738281 244.273438 686.933594 247.804688 C 689.128906 251.339844 691.257812 254.914062 693.320312 258.527344 C 695.378906 262.140625 697.375 265.792969 699.300781 269.480469 C 701.226562 273.167969 703.082031 276.890625 704.871094 280.644531 C 706.660156 284.402344 708.375 288.191406 710.023438 292.011719 C 711.667969 295.832031 713.246094 299.683594 714.75 303.5625 C 716.25 307.441406 717.683594 311.347656 719.042969 315.28125 C 720.398438 319.214844 721.683594 323.171875 722.894531 327.152344 C 724.105469 331.132812 725.242188 335.132812 726.304688 339.15625 C 727.367188 343.179688 728.355469 347.21875 729.269531 351.277344 C 730.179688 355.339844 731.015625 359.414062 731.777344 363.503906 C 732.539062 367.59375 733.222656 371.699219 733.828125 375.816406 C 734.4375 379.929688 734.96875 384.058594 735.425781 388.191406 C 735.878906 392.328125 736.257812 396.472656 736.558594 400.621094 C 736.859375 404.773438 737.082031 408.925781 737.226562 413.085938 C 737.371094 417.242188 737.441406 421.402344 737.433594 425.5625 Z M 400.050781 403.535156 C 401.160156 403.535156 402.265625 403.480469 403.371094 403.371094 C 404.472656 403.261719 405.570312 403.097656 406.65625 402.882812 C 407.746094 402.664062 408.820312 402.398438 409.882812 402.074219 C 410.945312 401.753906 411.988281 401.378906 413.011719 400.953125 C 414.035156 400.527344 415.039062 400.054688 416.015625 399.53125 C 416.996094 399.007812 417.945312 398.4375 418.867188 397.820312 C 419.789062 397.207031 420.679688 396.542969 421.539062 395.839844 C 422.394531 395.136719 423.21875 394.390625 424 393.605469 C 424.785156 392.820312 425.53125 392 426.234375 391.144531 C 426.9375 390.285156 427.597656 389.394531 428.214844 388.472656 C 428.832031 387.546875 429.398438 386.597656 429.921875 385.617188 C 430.445312 384.640625 430.917969 383.636719 431.34375 382.613281 C 431.769531 381.585938 432.140625 380.542969 432.464844 379.480469 C 432.785156 378.417969 433.054688 377.34375 433.273438 376.253906 C 433.488281 375.164062 433.652344 374.070312 433.761719 372.964844 C 433.867188 371.859375 433.921875 370.753906 433.921875 369.640625 L 433.921875 52.757812 C 433.921875 51.648438 433.867188 50.539062 433.761719 49.4375 C 433.652344 48.332031 433.488281 47.234375 433.273438 46.144531 C 433.054688 45.058594 432.785156 43.980469 432.464844 42.921875 C 432.140625 41.859375 431.769531 40.8125 431.34375 39.789062 C 430.917969 38.761719 430.445312 37.761719 429.921875 36.78125 C 429.398438 35.804688 428.832031 34.851562 428.214844 33.929688 C 427.597656 33.007812 426.9375 32.117188 426.234375 31.257812 C 425.53125 30.398438 424.785156 29.578125 424 28.792969 C 423.21875 28.007812 422.394531 27.265625 421.539062 26.558594 C 420.679688 25.855469 419.789062 25.195312 418.867188 24.578125 C 417.945312 23.960938 416.996094 23.390625 416.015625 22.867188 C 415.039062 22.34375 414.035156 21.871094 413.011719 21.445312 C 411.988281 21.023438 410.945312 20.648438 409.882812 20.324219 C 408.820312 20.003906 407.746094 19.734375 406.65625 19.519531 C 405.570312 19.300781 404.472656 19.140625 403.371094 19.03125 C 402.265625 18.921875 401.160156 18.867188 400.050781 18.867188 C 398.941406 18.867188 397.832031 18.921875 396.730469 19.03125 C 395.625 19.140625 394.527344 19.300781 393.441406 19.519531 C 392.351562 19.734375 391.277344 20.003906 390.214844 20.324219 C 389.15625 20.648438 388.109375 21.023438 387.085938 21.445312 C 386.0625 21.871094 385.058594 22.34375 384.082031 22.867188 C 383.101562 23.390625 382.152344 23.960938 381.230469 24.578125 C 380.308594 25.195312 379.417969 25.855469 378.558594 26.558594 C 377.703125 27.265625 376.882812 28.007812 376.097656 28.792969 C 375.3125 29.578125 374.566406 30.398438 373.863281 31.257812 C 373.160156 32.117188 372.5 33.007812 371.882812 33.929688 C 371.265625 34.851562 370.699219 35.804688 370.175781 36.78125 C 369.652344 37.761719 369.179688 38.761719 368.753906 39.789062 C 368.328125 40.8125 367.957031 41.859375 367.632812 42.921875 C 367.3125 43.980469 367.042969 45.058594 366.824219 46.144531 C 366.609375 47.234375 366.445312 48.332031 366.339844 49.4375 C 366.230469 50.539062 366.175781 51.648438 366.175781 52.757812 L 366.175781 369.640625 C 366.175781 370.753906 366.230469 371.859375 366.339844 372.964844 C 366.445312 374.070312 366.609375 375.164062 366.824219 376.253906 C 367.042969 377.34375 367.3125 378.417969 367.632812 379.480469 C 367.957031 380.542969 368.328125 381.585938 368.753906 382.613281 C 369.179688 383.636719 369.652344 384.640625 370.175781 385.617188 C 370.699219 386.597656 371.265625 387.546875 371.882812 388.472656 C 372.5 389.394531 373.160156 390.285156 373.863281 391.144531 C 374.566406 392 375.3125 392.820312 376.097656 393.605469 C 376.882812 394.390625 377.703125 395.136719 378.558594 395.839844 C 379.417969 396.542969 380.308594 397.207031 381.230469 397.820312 C 382.152344 398.4375 383.101562 399.007812 384.082031 399.53125 C 385.058594 400.054688 386.0625 400.527344 387.085938 400.953125 C 388.109375 401.378906 389.15625 401.753906 390.214844 402.074219 C 391.277344 402.394531 392.351562 402.664062 393.441406 402.882812 C 394.527344 403.097656 395.625 403.261719 396.730469 403.371094 C 397.832031 403.480469 398.941406 403.535156 400.050781 403.535156 Z M 400.050781 403.535156 " fill-opacity="1" fill-rule="nonzero"/></g></svg>