<svg xmlns="http://www.w3.org/2000/svg" xmlns:xlink="http://www.w3.org/1999/xlink" width="1080" zoomAndPan="magnify" viewBox="0 0 810 809.999993" height="1080" preserveAspectRatio="xMidYMid meet" version="1.0"><defs><clipPath id="482cb75798"><path d="M 19 24 L 768.867188 24 L 768.867188 773.121094 L 19 773.121094 Z M 19 24 " clip-rule="nonzero"/></clipPath></defs><g clip-path="url(#482cb75798)"><path fill="#000000" d="M 442.433594 35.824219 C 440.933594 30.332031 436.203125 26.339844 430.535156 25.796875 C 406.453125 23.453125 382.179688 23.453125 358.101562 25.796875 C 352.429688 26.339844 347.703125 30.332031 346.199219 35.824219 L 333.019531 84.074219 C 318.480469 86.917969 304.152344 90.746094 290.144531 95.5625 C 290.160156 95.5625 254.605469 60.363281 254.605469 60.363281 C 250.570312 56.355469 244.472656 55.265625 239.289062 57.621094 C 217.253906 67.636719 196.253906 79.773438 176.546875 93.855469 C 171.921875 97.152344 169.816406 102.972656 171.273438 108.480469 L 183.984375 156.859375 C 172.804688 166.582031 162.320312 177.066406 152.597656 188.246094 C 152.597656 188.246094 104.21875 175.535156 104.21875 175.535156 C 98.710938 174.078125 92.890625 176.183594 89.59375 180.808594 C 75.511719 200.515625 63.375 221.519531 53.359375 243.550781 C 51.003906 248.734375 52.09375 254.832031 56.101562 258.867188 L 91.300781 294.421875 C 86.484375 308.429688 82.65625 322.746094 79.8125 337.28125 C 79.8125 337.28125 31.5625 350.460938 31.5625 350.460938 C 26.070312 351.964844 22.078125 356.691406 21.535156 362.363281 C 19.191406 386.445312 19.191406 410.714844 21.535156 434.796875 C 22.078125 440.464844 26.070312 445.195312 31.5625 446.695312 L 79.8125 459.878906 C 82.65625 474.414062 86.484375 488.746094 91.300781 502.75 C 91.300781 502.738281 56.101562 538.289062 56.101562 538.289062 C 52.09375 542.324219 51.003906 548.421875 53.359375 553.609375 C 63.375 575.640625 75.511719 596.644531 89.59375 616.351562 C 92.890625 620.972656 98.710938 623.082031 104.21875 621.621094 L 152.597656 608.910156 C 162.320312 620.089844 172.804688 630.578125 183.984375 640.296875 C 183.984375 640.296875 171.273438 688.679688 171.273438 688.679688 C 169.816406 694.1875 171.921875 700.003906 176.546875 703.304688 C 196.253906 717.382812 217.253906 729.519531 239.289062 739.535156 C 244.472656 741.890625 250.570312 740.800781 254.605469 736.796875 L 290.160156 701.597656 C 304.167969 706.414062 318.480469 710.242188 333.019531 713.082031 C 333.019531 713.082031 346.199219 761.332031 346.199219 761.332031 C 347.703125 766.828125 352.429688 770.816406 358.101562 771.363281 C 382.179688 773.703125 406.453125 773.703125 430.535156 771.363281 C 436.203125 770.816406 440.933594 766.828125 442.433594 761.332031 L 455.617188 713.082031 C 470.152344 710.242188 484.484375 706.414062 498.488281 701.597656 C 498.476562 701.597656 534.027344 736.796875 534.027344 736.796875 C 538.0625 740.800781 544.160156 741.890625 549.347656 739.535156 C 571.378906 729.519531 592.382812 717.382812 612.085938 703.304688 C 616.710938 700.003906 618.820312 694.1875 617.359375 688.679688 L 604.648438 640.296875 C 615.828125 630.578125 626.316406 620.089844 636.035156 608.910156 C 636.035156 608.910156 684.417969 621.621094 684.417969 621.621094 C 689.925781 623.082031 695.742188 620.972656 699.042969 616.351562 C 713.121094 596.644531 725.257812 575.640625 735.273438 553.609375 C 737.628906 548.421875 736.539062 542.324219 732.535156 538.289062 L 697.335938 502.738281 C 702.148438 488.730469 705.980469 474.414062 708.820312 459.878906 C 708.820312 459.878906 757.070312 446.695312 757.070312 446.695312 C 762.566406 445.195312 766.554688 440.464844 767.101562 434.796875 C 769.441406 410.714844 769.441406 386.445312 767.101562 362.363281 C 766.554688 356.691406 762.566406 351.964844 757.070312 350.460938 L 708.820312 337.28125 C 705.980469 322.746094 702.148438 308.414062 697.335938 294.40625 C 697.335938 294.421875 732.535156 258.867188 732.535156 258.867188 C 736.539062 254.832031 737.628906 248.734375 735.273438 243.550781 C 725.257812 221.519531 713.121094 200.515625 699.042969 180.808594 C 695.742188 176.183594 689.925781 174.078125 684.417969 175.535156 L 636.035156 188.246094 C 626.316406 177.066406 615.828125 166.582031 604.648438 156.859375 C 604.648438 156.859375 617.359375 108.480469 617.359375 108.480469 C 618.820312 102.972656 616.710938 97.152344 612.085938 93.855469 C 592.382812 79.773438 571.378906 67.636719 549.347656 57.621094 C 544.160156 55.265625 538.0625 56.355469 534.027344 60.363281 L 498.476562 95.5625 C 484.46875 90.746094 470.152344 86.917969 455.617188 84.074219 C 455.617188 84.074219 442.433594 35.824219 442.433594 35.824219 Z M 418.515625 52.292969 L 431.460938 99.640625 C 432.859375 104.796875 437.148438 108.671875 442.417969 109.539062 C 461.109375 112.648438 479.445312 117.566406 497.179688 124.207031 C 502.1875 126.09375 507.828125 124.886719 511.628906 121.117188 L 546.503906 86.578125 C 561.023438 93.664062 575.03125 101.75 588.417969 110.777344 C 588.417969 110.792969 575.945312 158.261719 575.945312 158.261719 C 574.589844 163.429688 576.371094 168.921875 580.496094 172.324219 C 595.121094 184.359375 608.539062 197.777344 620.570312 212.402344 C 623.972656 216.523438 629.46875 218.308594 634.636719 216.953125 L 682.105469 204.476562 C 691.148438 217.863281 699.234375 231.871094 706.316406 246.394531 C 706.316406 246.394531 671.78125 281.269531 671.78125 281.269531 C 668.011719 285.070312 666.800781 290.710938 668.6875 295.71875 C 675.332031 313.449219 680.25 331.789062 683.355469 350.476562 C 684.226562 355.75 688.097656 360.035156 693.253906 361.433594 L 740.605469 374.382812 C 741.738281 390.492188 741.738281 406.664062 740.605469 422.777344 C 740.605469 422.777344 693.253906 435.722656 693.253906 435.722656 C 688.097656 437.121094 684.226562 441.410156 683.355469 446.679688 C 680.25 465.371094 675.332031 483.707031 668.6875 501.441406 C 666.800781 506.449219 668.011719 512.089844 671.78125 515.890625 L 706.316406 550.765625 C 699.234375 565.289062 691.148438 579.292969 682.121094 592.679688 C 682.105469 592.679688 634.636719 580.207031 634.636719 580.207031 C 629.46875 578.851562 623.972656 580.632812 620.570312 584.757812 C 608.539062 599.382812 595.121094 612.800781 580.496094 624.832031 C 576.371094 628.234375 574.589844 633.730469 575.945312 638.898438 L 588.417969 686.367188 C 575.03125 695.410156 561.023438 703.496094 546.503906 710.582031 C 546.503906 710.582031 511.628906 676.042969 511.628906 676.042969 C 507.828125 672.273438 502.1875 671.066406 497.179688 672.949219 C 479.445312 679.59375 461.109375 684.511719 442.417969 687.617188 C 437.148438 688.488281 432.859375 692.363281 431.460938 697.515625 L 418.515625 744.867188 C 402.402344 746 386.230469 746 370.117188 744.867188 C 370.117188 744.867188 357.171875 697.515625 357.171875 697.515625 C 355.773438 692.363281 351.488281 688.488281 346.214844 687.617188 C 327.523438 684.511719 309.1875 679.59375 291.457031 672.949219 C 286.449219 671.066406 280.808594 672.273438 277.007812 676.042969 L 242.132812 710.582031 C 227.609375 703.496094 213.601562 695.410156 200.214844 686.382812 C 200.214844 686.367188 212.691406 638.898438 212.691406 638.898438 C 214.046875 633.730469 212.261719 628.234375 208.140625 624.832031 C 193.515625 612.800781 180.097656 599.382812 168.0625 584.757812 C 164.660156 580.632812 159.167969 578.851562 154 580.207031 L 106.53125 592.679688 C 97.488281 579.292969 89.402344 565.289062 82.316406 550.765625 C 82.316406 550.765625 116.855469 515.890625 116.855469 515.890625 C 120.625 512.089844 121.832031 506.449219 119.945312 501.441406 C 113.304688 483.707031 108.386719 465.371094 105.277344 446.679688 C 104.410156 441.410156 100.535156 437.121094 95.378906 435.722656 L 48.03125 422.777344 C 46.894531 406.664062 46.894531 390.492188 48.03125 374.382812 C 48.03125 374.382812 95.378906 361.433594 95.378906 361.433594 C 100.535156 360.035156 104.410156 355.75 105.277344 350.476562 C 108.386719 331.789062 113.304688 313.449219 119.945312 295.71875 C 121.832031 290.710938 120.625 285.070312 116.855469 281.269531 L 82.316406 246.394531 C 89.402344 231.871094 97.488281 217.863281 106.515625 204.476562 C 106.53125 204.476562 154 216.953125 154 216.953125 C 159.167969 218.308594 164.660156 216.523438 168.0625 212.402344 C 180.097656 197.777344 193.515625 184.359375 208.140625 172.324219 C 212.261719 168.921875 214.046875 163.429688 212.691406 158.261719 L 200.214844 110.792969 C 213.601562 101.75 227.609375 93.664062 242.132812 86.578125 C 242.132812 86.578125 277.007812 121.117188 277.007812 121.117188 C 280.808594 124.886719 286.449219 126.09375 291.457031 124.207031 C 309.1875 117.566406 327.523438 112.648438 346.214844 109.539062 C 351.488281 108.671875 355.773438 104.796875 357.171875 99.640625 L 370.117188 52.292969 C 386.230469 51.15625 402.402344 51.15625 418.515625 52.292969 Z M 394.316406 192.796875 C 280.75 192.796875 188.535156 285.011719 188.535156 398.578125 C 188.535156 512.148438 280.75 604.359375 394.316406 604.359375 C 507.886719 604.359375 600.097656 512.148438 600.097656 398.578125 C 600.097656 285.011719 507.886719 192.796875 394.316406 192.796875 Z M 394.316406 220.207031 C 492.761719 220.207031 572.691406 300.136719 572.691406 398.578125 C 572.691406 497.023438 492.761719 576.953125 394.316406 576.953125 C 295.875 576.953125 215.945312 497.023438 215.945312 398.578125 C 215.945312 300.136719 295.875 220.207031 394.316406 220.207031 Z M 394.316406 220.207031 " fill-opacity="1" fill-rule="evenodd"/></g></svg>