<svg xmlns="http://www.w3.org/2000/svg" xmlns:xlink="http://www.w3.org/1999/xlink" width="1080" zoomAndPan="magnify" viewBox="0 0 810 809.999993" height="1080" preserveAspectRatio="xMidYMid meet" version="1.0"><defs><clipPath id="c1bf99a989"><path d="M 28.796875 28 L 523 28 L 523 782.484375 L 28.796875 782.484375 Z M 28.796875 28 " clip-rule="nonzero"/></clipPath></defs><path fill="#000000" d="M 770.40625 377.671875 L 623.519531 230.671875 C 622.617188 229.769531 621.671875 228.914062 620.6875 228.105469 C 619.703125 227.292969 618.679688 226.535156 617.617188 225.824219 C 616.558594 225.117188 615.464844 224.460938 614.339844 223.859375 C 613.214844 223.257812 612.0625 222.710938 610.882812 222.222656 C 609.703125 221.734375 608.503906 221.304688 607.285156 220.933594 C 606.0625 220.5625 604.828125 220.253906 603.578125 220.003906 C 602.324219 219.753906 601.066406 219.570312 599.796875 219.441406 C 598.527344 219.316406 597.253906 219.253906 595.976562 219.253906 C 594.703125 219.253906 593.429688 219.316406 592.160156 219.441406 C 590.890625 219.570312 589.628906 219.753906 588.378906 220.003906 C 587.128906 220.253906 585.890625 220.5625 584.671875 220.933594 C 583.449219 221.304688 582.25 221.734375 581.074219 222.222656 C 579.894531 222.710938 578.742188 223.257812 577.617188 223.859375 C 576.492188 224.460938 575.398438 225.117188 574.339844 225.824219 C 573.277344 226.535156 572.253906 227.292969 571.269531 228.105469 C 570.28125 228.914062 569.339844 229.769531 568.4375 230.671875 C 567.535156 231.574219 566.679688 232.519531 565.867188 233.507812 C 565.058594 234.496094 564.300781 235.519531 563.59375 236.578125 C 562.882812 237.640625 562.226562 238.734375 561.628906 239.859375 C 561.027344 240.988281 560.480469 242.140625 559.992188 243.320312 C 559.503906 244.5 559.074219 245.699219 558.707031 246.921875 C 558.335938 248.140625 558.023438 249.378906 557.777344 250.632812 C 557.527344 251.882812 557.339844 253.144531 557.214844 254.414062 C 557.089844 255.683594 557.027344 256.957031 557.027344 258.234375 C 557.027344 259.511719 557.089844 260.785156 557.214844 262.054688 C 557.339844 263.328125 557.527344 264.589844 557.777344 265.839844 C 558.023438 267.09375 558.335938 268.328125 558.707031 269.550781 C 559.074219 270.773438 559.503906 271.972656 559.992188 273.152344 C 560.480469 274.332031 561.027344 275.484375 561.628906 276.609375 C 562.226562 277.734375 562.882812 278.828125 563.59375 279.890625 C 564.300781 280.953125 565.058594 281.976562 565.871094 282.964844 C 566.679688 283.949219 567.535156 284.894531 568.4375 285.796875 L 648.832031 366.257812 L 223.542969 366.257812 C 222.265625 366.257812 220.996094 366.320312 219.726562 366.445312 C 218.457031 366.570312 217.195312 366.757812 215.945312 367.003906 C 214.691406 367.253906 213.457031 367.5625 212.238281 367.933594 C 211.015625 368.304688 209.816406 368.734375 208.636719 369.222656 C 207.457031 369.710938 206.308594 370.257812 205.183594 370.859375 C 204.058594 371.460938 202.964844 372.117188 201.902344 372.824219 C 200.84375 373.535156 199.820312 374.292969 198.832031 375.105469 C 197.847656 375.914062 196.902344 376.769531 196 377.671875 C 195.097656 378.574219 194.242188 379.519531 193.433594 380.507812 C 192.625 381.496094 191.867188 382.519531 191.15625 383.578125 C 190.449219 384.640625 189.792969 385.734375 189.191406 386.859375 C 188.589844 387.988281 188.046875 389.140625 187.558594 390.320312 C 187.070312 391.5 186.640625 392.699219 186.269531 393.921875 C 185.902344 395.140625 185.589844 396.378906 185.34375 397.632812 C 185.09375 398.882812 184.90625 400.144531 184.78125 401.414062 C 184.65625 402.6875 184.59375 403.960938 184.59375 405.234375 C 184.59375 406.511719 184.65625 407.785156 184.78125 409.054688 C 184.90625 410.328125 185.09375 411.589844 185.34375 412.839844 C 185.589844 414.09375 185.898438 415.328125 186.269531 416.550781 C 186.640625 417.773438 187.070312 418.972656 187.558594 420.152344 C 188.046875 421.332031 188.589844 422.484375 189.191406 423.609375 C 189.792969 424.738281 190.449219 425.832031 191.15625 426.890625 C 191.867188 427.953125 192.625 428.976562 193.433594 429.964844 C 194.242188 430.949219 195.097656 431.894531 196 432.796875 C 196.902344 433.699219 197.847656 434.558594 198.832031 435.367188 C 199.820312 436.175781 200.84375 436.9375 201.902344 437.644531 C 202.964844 438.355469 204.058594 439.011719 205.183594 439.613281 C 206.308594 440.214844 207.457031 440.757812 208.636719 441.246094 C 209.816406 441.738281 211.015625 442.167969 212.238281 442.535156 C 213.457031 442.90625 214.691406 443.21875 215.945312 443.464844 C 217.195312 443.714844 218.457031 443.902344 219.726562 444.027344 C 220.996094 444.152344 222.265625 444.214844 223.542969 444.214844 L 648.832031 444.214844 L 568.4375 524.671875 C 567.535156 525.578125 566.679688 526.519531 565.871094 527.507812 C 565.058594 528.496094 564.300781 529.519531 563.59375 530.582031 C 562.882812 531.640625 562.226562 532.734375 561.628906 533.863281 C 561.027344 534.988281 560.480469 536.140625 559.992188 537.320312 C 559.503906 538.5 559.074219 539.699219 558.707031 540.921875 C 558.335938 542.144531 558.027344 543.378906 557.777344 544.632812 C 557.527344 545.882812 557.339844 547.144531 557.214844 548.414062 C 557.089844 549.6875 557.027344 550.960938 557.027344 552.238281 C 557.027344 553.511719 557.089844 554.785156 557.214844 556.058594 C 557.339844 557.328125 557.527344 558.589844 557.777344 559.839844 C 558.027344 561.09375 558.335938 562.332031 558.707031 563.550781 C 559.074219 564.773438 559.503906 565.972656 559.992188 567.152344 C 560.480469 568.332031 561.027344 569.484375 561.628906 570.613281 C 562.230469 571.738281 562.882812 572.832031 563.59375 573.890625 C 564.300781 574.953125 565.0625 575.976562 565.871094 576.964844 C 566.679688 577.953125 567.535156 578.898438 568.4375 579.800781 C 569.339844 580.703125 570.28125 581.558594 571.269531 582.367188 C 572.253906 583.179688 573.277344 583.9375 574.339844 584.648438 C 575.398438 585.355469 576.492188 586.011719 577.617188 586.613281 C 578.742188 587.214844 579.894531 587.761719 581.074219 588.25 C 582.25 588.738281 583.453125 589.167969 584.671875 589.539062 C 585.894531 589.90625 587.128906 590.21875 588.378906 590.46875 C 589.632812 590.714844 590.890625 590.902344 592.160156 591.027344 C 593.429688 591.152344 594.703125 591.214844 595.976562 591.214844 C 597.253906 591.214844 598.527344 591.152344 599.796875 591.027344 C 601.066406 590.902344 602.324219 590.714844 603.578125 590.464844 C 604.828125 590.21875 606.0625 589.90625 607.285156 589.539062 C 608.503906 589.167969 609.707031 588.738281 610.882812 588.25 C 612.0625 587.761719 613.214844 587.214844 614.339844 586.613281 C 615.464844 586.011719 616.558594 585.355469 617.617188 584.644531 C 618.679688 583.9375 619.703125 583.175781 620.6875 582.367188 C 621.675781 581.558594 622.617188 580.703125 623.519531 579.796875 L 770.40625 432.796875 C 771.308594 431.894531 772.164062 430.949219 772.972656 429.964844 C 773.78125 428.976562 774.542969 427.953125 775.25 426.890625 C 775.960938 425.828125 776.613281 424.734375 777.214844 423.609375 C 777.816406 422.484375 778.363281 421.332031 778.851562 420.152344 C 779.339844 418.972656 779.765625 417.773438 780.136719 416.550781 C 780.507812 415.328125 780.816406 414.089844 781.066406 412.839844 C 781.316406 411.585938 781.503906 410.324219 781.628906 409.054688 C 781.753906 407.785156 781.816406 406.511719 781.816406 405.234375 C 781.816406 403.957031 781.753906 402.683594 781.628906 401.414062 C 781.503906 400.144531 781.316406 398.882812 781.066406 397.628906 C 780.816406 396.378906 780.507812 395.140625 780.136719 393.917969 C 779.765625 392.699219 779.339844 391.496094 778.851562 390.316406 C 778.363281 389.140625 777.816406 387.984375 777.214844 386.859375 C 776.613281 385.734375 775.960938 384.640625 775.25 383.578125 C 774.542969 382.519531 773.78125 381.492188 772.972656 380.507812 C 772.164062 379.519531 771.308594 378.574219 770.40625 377.671875 Z M 770.40625 377.671875 " fill-opacity="1" fill-rule="nonzero"/><g clip-path="url(#c1bf99a989)"><path fill="#000000" d="M 483.203125 626.117188 C 481.929688 626.117188 480.65625 626.183594 479.386719 626.308594 C 478.117188 626.433594 476.855469 626.617188 475.605469 626.867188 C 474.355469 627.117188 473.117188 627.425781 471.898438 627.796875 C 470.675781 628.167969 469.476562 628.597656 468.296875 629.085938 C 467.121094 629.574219 465.96875 630.121094 464.84375 630.722656 C 463.71875 631.324219 462.625 631.980469 461.566406 632.6875 C 460.503906 633.398438 459.480469 634.15625 458.496094 634.96875 C 457.507812 635.777344 456.566406 636.632812 455.664062 637.535156 C 454.761719 638.4375 453.90625 639.382812 453.097656 640.371094 C 452.285156 641.355469 451.527344 642.382812 450.820312 643.441406 C 450.109375 644.503906 449.453125 645.597656 448.855469 646.722656 C 448.253906 647.847656 447.707031 649.003906 447.21875 650.183594 C 446.730469 651.359375 446.300781 652.5625 445.933594 653.785156 C 445.5625 655.003906 445.253906 656.242188 445.003906 657.492188 C 444.753906 658.746094 444.566406 660.007812 444.441406 661.277344 C 444.316406 662.546875 444.253906 663.820312 444.253906 665.097656 L 444.253906 704.078125 L 106.695312 704.078125 L 106.695312 106.394531 L 444.253906 106.394531 L 444.253906 145.375 C 444.253906 146.648438 444.316406 147.921875 444.441406 149.195312 C 444.566406 150.464844 444.753906 151.726562 445.003906 152.976562 C 445.25 154.230469 445.5625 155.464844 445.933594 156.6875 C 446.300781 157.910156 446.730469 159.109375 447.21875 160.289062 C 447.707031 161.46875 448.253906 162.621094 448.855469 163.746094 C 449.453125 164.875 450.109375 165.96875 450.820312 167.027344 C 451.527344 168.089844 452.285156 169.113281 453.097656 170.101562 C 453.90625 171.089844 454.761719 172.03125 455.664062 172.9375 C 456.566406 173.839844 457.507812 174.695312 458.496094 175.503906 C 459.480469 176.316406 460.503906 177.074219 461.566406 177.785156 C 462.625 178.492188 463.71875 179.148438 464.84375 179.75 C 465.96875 180.351562 467.121094 180.898438 468.296875 181.386719 C 469.476562 181.875 470.675781 182.304688 471.898438 182.675781 C 473.117188 183.042969 474.355469 183.355469 475.605469 183.605469 C 476.855469 183.851562 478.117188 184.039062 479.386719 184.164062 C 480.65625 184.289062 481.929688 184.351562 483.203125 184.351562 C 484.480469 184.351562 485.753906 184.289062 487.023438 184.164062 C 488.292969 184.039062 489.550781 183.851562 490.800781 183.605469 C 492.054688 183.355469 493.289062 183.042969 494.511719 182.675781 C 495.730469 182.304688 496.929688 181.875 498.109375 181.386719 C 499.289062 180.898438 500.4375 180.351562 501.5625 179.75 C 502.6875 179.148438 503.78125 178.492188 504.84375 177.785156 C 505.902344 177.074219 506.925781 176.316406 507.914062 175.503906 C 508.898438 174.695312 509.84375 173.839844 510.746094 172.9375 C 511.648438 172.03125 512.503906 171.089844 513.3125 170.101562 C 514.121094 169.113281 514.878906 168.089844 515.589844 167.027344 C 516.296875 165.96875 516.953125 164.875 517.554688 163.746094 C 518.15625 162.621094 518.699219 161.46875 519.1875 160.289062 C 519.675781 159.109375 520.105469 157.910156 520.476562 156.6875 C 520.847656 155.464844 521.15625 154.230469 521.40625 152.976562 C 521.652344 151.726562 521.839844 150.464844 521.964844 149.195312 C 522.089844 147.921875 522.152344 146.648438 522.152344 145.375 L 522.152344 93.402344 C 522.152344 92.335938 522.128906 91.273438 522.074219 90.214844 C 522.023438 89.152344 521.945312 88.089844 521.839844 87.03125 C 521.738281 85.976562 521.605469 84.917969 521.449219 83.867188 C 521.292969 82.816406 521.113281 81.769531 520.90625 80.726562 C 520.699219 79.683594 520.464844 78.648438 520.207031 77.617188 C 519.949219 76.582031 519.667969 75.558594 519.359375 74.542969 C 519.050781 73.523438 518.714844 72.515625 518.359375 71.515625 C 518 70.511719 517.617188 69.523438 517.210938 68.539062 C 516.804688 67.558594 516.375 66.585938 515.921875 65.625 C 515.464844 64.664062 514.988281 63.714844 514.488281 62.777344 C 513.988281 61.839844 513.464844 60.914062 512.917969 60 C 512.371094 59.089844 511.804688 58.191406 511.214844 57.308594 C 510.621094 56.421875 510.011719 55.554688 509.378906 54.699219 C 508.746094 53.847656 508.09375 53.007812 507.417969 52.1875 C 506.742188 51.363281 506.050781 50.558594 505.335938 49.773438 C 504.625 48.984375 503.890625 48.214844 503.140625 47.464844 C 502.386719 46.710938 501.621094 45.976562 500.832031 45.265625 C 500.046875 44.550781 499.242188 43.855469 498.417969 43.179688 C 497.597656 42.507812 496.761719 41.851562 495.90625 41.21875 C 495.054688 40.585938 494.1875 39.972656 493.304688 39.382812 C 492.417969 38.792969 491.523438 38.222656 490.609375 37.679688 C 489.699219 37.132812 488.777344 36.605469 487.839844 36.105469 C 486.902344 35.605469 485.953125 35.128906 484.992188 34.671875 C 484.03125 34.21875 483.0625 33.785156 482.078125 33.378906 C 481.097656 32.972656 480.105469 32.589844 479.105469 32.234375 C 478.105469 31.875 477.097656 31.542969 476.082031 31.230469 C 475.066406 30.921875 474.042969 30.640625 473.011719 30.382812 C 471.980469 30.125 470.945312 29.890625 469.902344 29.683594 C 468.859375 29.476562 467.8125 29.292969 466.761719 29.136719 C 465.710938 28.980469 464.65625 28.851562 463.601562 28.746094 C 462.542969 28.644531 461.484375 28.566406 460.421875 28.511719 C 459.363281 28.460938 458.300781 28.433594 457.238281 28.433594 L 93.710938 28.433594 C 92.648438 28.433594 91.589844 28.460938 90.527344 28.511719 C 89.464844 28.566406 88.40625 28.644531 87.347656 28.746094 C 86.292969 28.851562 85.238281 28.980469 84.1875 29.136719 C 83.136719 29.292969 82.089844 29.476562 81.046875 29.683594 C 80.003906 29.890625 78.96875 30.125 77.9375 30.382812 C 76.910156 30.640625 75.886719 30.921875 74.867188 31.230469 C 73.851562 31.542969 72.84375 31.875 71.84375 32.234375 C 70.84375 32.589844 69.851562 32.972656 68.871094 33.378906 C 67.886719 33.785156 66.917969 34.21875 65.957031 34.671875 C 64.996094 35.128906 64.046875 35.605469 63.109375 36.105469 C 62.175781 36.605469 61.25 37.132812 60.339844 37.679688 C 59.429688 38.222656 58.53125 38.792969 57.648438 39.382812 C 56.765625 39.972656 55.894531 40.585938 55.042969 41.21875 C 54.1875 41.851562 53.351562 42.507812 52.53125 43.179688 C 51.710938 43.855469 50.90625 44.550781 50.117188 45.265625 C 49.332031 45.976562 48.5625 46.710938 47.808594 47.464844 C 47.058594 48.214844 46.328125 48.984375 45.613281 49.773438 C 44.898438 50.558594 44.207031 51.363281 43.53125 52.1875 C 42.859375 53.007812 42.203125 53.847656 41.570312 54.699219 C 40.9375 55.554688 40.328125 56.421875 39.738281 57.308594 C 39.148438 58.191406 38.578125 59.089844 38.03125 60 C 37.484375 60.914062 36.960938 61.839844 36.460938 62.777344 C 35.960938 63.714844 35.484375 64.664062 35.03125 65.625 C 34.574219 66.585938 34.144531 67.558594 33.738281 68.539062 C 33.332031 69.523438 32.949219 70.511719 32.589844 71.515625 C 32.234375 72.515625 31.902344 73.523438 31.59375 74.542969 C 31.285156 75.558594 31 76.582031 30.742188 77.617188 C 30.484375 78.648438 30.25 79.683594 30.042969 80.726562 C 29.835938 81.769531 29.65625 82.816406 29.5 83.867188 C 29.34375 84.917969 29.214844 85.976562 29.109375 87.03125 C 29.003906 88.089844 28.925781 89.152344 28.875 90.214844 C 28.824219 91.273438 28.796875 92.335938 28.796875 93.402344 L 28.796875 717.070312 C 28.796875 718.132812 28.824219 719.195312 28.875 720.257812 C 28.925781 721.320312 29.003906 722.378906 29.109375 723.4375 C 29.214844 724.496094 29.34375 725.550781 29.5 726.601562 C 29.65625 727.65625 29.835938 728.703125 30.042969 729.746094 C 30.25 730.789062 30.484375 731.824219 30.742188 732.855469 C 31 733.886719 31.285156 734.910156 31.59375 735.929688 C 31.902344 736.945312 32.234375 737.957031 32.589844 738.957031 C 32.949219 739.957031 33.332031 740.949219 33.738281 741.933594 C 34.144531 742.914062 34.574219 743.886719 35.03125 744.847656 C 35.484375 745.808594 35.960938 746.757812 36.460938 747.695312 C 36.960938 748.632812 37.484375 749.558594 38.03125 750.46875 C 38.578125 751.382812 39.148438 752.28125 39.738281 753.164062 C 40.328125 754.046875 40.9375 754.917969 41.570312 755.769531 C 42.203125 756.625 42.859375 757.460938 43.53125 758.285156 C 44.207031 759.105469 44.898438 759.910156 45.613281 760.699219 C 46.328125 761.488281 47.058594 762.257812 47.808594 763.007812 C 48.5625 763.761719 49.332031 764.492188 50.117188 765.207031 C 50.90625 765.921875 51.710938 766.617188 52.53125 767.289062 C 53.351562 767.964844 54.1875 768.617188 55.042969 769.25 C 55.894531 769.886719 56.765625 770.496094 57.648438 771.089844 C 58.53125 771.679688 59.429688 772.246094 60.339844 772.792969 C 61.25 773.339844 62.175781 773.863281 63.109375 774.367188 C 64.046875 774.867188 64.996094 775.34375 65.957031 775.800781 C 66.917969 776.253906 67.886719 776.683594 68.871094 777.089844 C 69.851562 777.5 70.84375 777.878906 71.84375 778.238281 C 72.84375 778.597656 73.851562 778.929688 74.867188 779.238281 C 75.886719 779.546875 76.910156 779.832031 77.9375 780.089844 C 78.96875 780.347656 80.003906 780.582031 81.046875 780.789062 C 82.089844 780.996094 83.136719 781.175781 84.1875 781.332031 C 85.238281 781.488281 86.292969 781.621094 87.347656 781.722656 C 88.40625 781.828125 89.464844 781.90625 90.527344 781.957031 C 91.589844 782.011719 92.648438 782.035156 93.710938 782.035156 L 457.238281 782.035156 C 458.300781 782.035156 459.363281 782.011719 460.421875 781.957031 C 461.484375 781.90625 462.542969 781.828125 463.601562 781.722656 C 464.65625 781.621094 465.710938 781.488281 466.761719 781.332031 C 467.8125 781.175781 468.859375 780.996094 469.902344 780.789062 C 470.945312 780.582031 471.980469 780.347656 473.011719 780.089844 C 474.042969 779.832031 475.066406 779.546875 476.082031 779.238281 C 477.097656 778.929688 478.105469 778.597656 479.105469 778.238281 C 480.105469 777.878906 481.097656 777.5 482.078125 777.089844 C 483.0625 776.683594 484.03125 776.253906 484.992188 775.800781 C 485.953125 775.34375 486.902344 774.867188 487.839844 774.367188 C 488.777344 773.863281 489.699219 773.339844 490.609375 772.792969 C 491.523438 772.246094 492.417969 771.679688 493.304688 771.089844 C 494.1875 770.496094 495.054688 769.886719 495.90625 769.25 C 496.761719 768.617188 497.597656 767.964844 498.417969 767.289062 C 499.242188 766.617188 500.046875 765.921875 500.832031 765.207031 C 501.621094 764.492188 502.386719 763.761719 503.140625 763.007812 C 503.890625 762.257812 504.625 761.488281 505.335938 760.699219 C 506.050781 759.910156 506.742188 759.105469 507.417969 758.285156 C 508.09375 757.464844 508.746094 756.625 509.378906 755.769531 C 510.011719 754.917969 510.621094 754.046875 511.214844 753.164062 C 511.804688 752.28125 512.371094 751.382812 512.917969 750.46875 C 513.464844 749.558594 513.988281 748.632812 514.488281 747.695312 C 514.988281 746.757812 515.464844 745.808594 515.921875 744.847656 C 516.375 743.886719 516.804688 742.914062 517.210938 741.933594 C 517.617188 740.949219 518 739.957031 518.359375 738.957031 C 518.714844 737.957031 519.050781 736.945312 519.359375 735.929688 C 519.667969 734.910156 519.949219 733.886719 520.207031 732.855469 C 520.464844 731.824219 520.699219 730.789062 520.90625 729.746094 C 521.113281 728.703125 521.292969 727.65625 521.449219 726.601562 C 521.605469 725.550781 521.738281 724.496094 521.839844 723.4375 C 521.945312 722.378906 522.023438 721.320312 522.074219 720.257812 C 522.128906 719.195312 522.152344 718.132812 522.152344 717.070312 L 522.152344 665.097656 C 522.152344 663.820312 522.089844 662.546875 521.964844 661.277344 C 521.839844 660.007812 521.652344 658.746094 521.40625 657.492188 C 521.15625 656.242188 520.847656 655.003906 520.476562 653.785156 C 520.105469 652.5625 519.675781 651.359375 519.1875 650.179688 C 518.699219 649.003906 518.15625 647.847656 517.554688 646.722656 C 516.953125 645.597656 516.296875 644.503906 515.589844 643.441406 C 514.878906 642.382812 514.121094 641.355469 513.3125 640.371094 C 512.503906 639.382812 511.648438 638.4375 510.746094 637.535156 C 509.84375 636.632812 508.898438 635.777344 507.914062 634.96875 C 506.925781 634.15625 505.902344 633.398438 504.84375 632.6875 C 503.78125 631.980469 502.6875 631.324219 501.5625 630.722656 C 500.4375 630.121094 499.289062 629.574219 498.109375 629.085938 C 496.929688 628.597656 495.730469 628.167969 494.511719 627.796875 C 493.289062 627.425781 492.054688 627.117188 490.800781 626.867188 C 489.550781 626.617188 488.292969 626.433594 487.023438 626.308594 C 485.753906 626.183594 484.480469 626.117188 483.203125 626.117188 Z M 483.203125 626.117188 " fill-opacity="1" fill-rule="nonzero"/></g></svg>